<svg xmlns="http://www.w3.org/2000/svg" xmlns:xlink="http://www.w3.org/1999/xlink" width="1080" zoomAndPan="magnify" viewBox="0 0 810 809.999993" height="1080" preserveAspectRatio="xMidYMid meet" version="1.2"><defs><clipPath id="d0f0587029"><path d="M 0.757812 0 L 701.242188 0 L 701.242188 810 L 0.757812 810 Z M 0.757812 0 "/></clipPath><clipPath id="0eb32f2ae1"><path d="M 0.757812 0 L 701.242188 0 L 701.242188 810 L 0.757812 810 Z M 0.757812 0 "/></clipPath><clipPath id="2c54fc030c"><rect x="0" width="702" y="0" height="810"/></clipPath><clipPath id="7c19fd87f1"><path d="M 83.382812 621.019531 L 618.617188 621.019531 L 618.617188 727.761719 L 83.382812 727.761719 Z M 83.382812 621.019531 "/></clipPath><clipPath id="6d818f0af3"><path d="M 0.382812 0.0195312 L 535.617188 0.0195312 L 535.617188 106.761719 L 0.382812 106.761719 Z M 0.382812 0.0195312 "/></clipPath><clipPath id="996fb86303"><rect x="0" width="536" y="0" height="107"/></clipPath><clipPath id="b71e2745a5"><path d="M 142 620.988281 L 585.453125 620.988281 L 585.453125 727.734375 L 142 727.734375 Z M 142 620.988281 "/></clipPath><clipPath id="f4b68b38b1"><path d="M 474.601562 727.734375 L 142.039062 727.734375 L 252.890625 620.988281 L 585.453125 620.988281 Z M 474.601562 727.734375 "/></clipPath><clipPath id="e23652eafa"><path d="M 0 0.988281 L 443.453125 0.988281 L 443.453125 107.734375 L 0 107.734375 Z M 0 0.988281 "/></clipPath><clipPath id="7160eab3f9"><path d="M 332.601562 107.734375 L 0.0390625 107.734375 L 110.890625 0.988281 L 443.453125 0.988281 Z M 332.601562 107.734375 "/></clipPath><clipPath id="b6f0ffb793"><rect x="0" width="444" y="0" height="108"/></clipPath><clipPath id="693116b246"><path d="M 363.359375 620.988281 L 618.546875 620.988281 L 618.546875 727.734375 L 363.359375 727.734375 Z M 363.359375 620.988281 "/></clipPath><clipPath id="cc9ae32dbb"><path d="M 507.691406 727.734375 L 363.71875 727.734375 L 474.570312 620.988281 L 618.546875 620.988281 Z M 507.691406 727.734375 "/></clipPath><clipPath id="93c6535e9a"><path d="M 0.601562 0.988281 L 255.546875 0.988281 L 255.546875 107.734375 L 0.601562 107.734375 Z M 0.601562 0.988281 "/></clipPath><clipPath id="c6ed5b4269"><path d="M 144.691406 107.734375 L 0.71875 107.734375 L 111.570312 0.988281 L 255.546875 0.988281 Z M 144.691406 107.734375 "/></clipPath><clipPath id="a1f9fa5706"><rect x="0" width="256" y="0" height="108"/></clipPath><clipPath id="e38517e7e6"><path d="M 491.203125 621.019531 L 618.617188 621.019531 L 618.617188 727.761719 L 491.203125 727.761719 Z M 491.203125 621.019531 "/></clipPath><clipPath id="95faa4749c"><path d="M 0.203125 0.0195312 L 127.617188 0.0195312 L 127.617188 106.761719 L 0.203125 106.761719 Z M 0.203125 0.0195312 "/></clipPath><clipPath id="f525a0f5ea"><rect x="0" width="128" y="0" height="107"/></clipPath><clipPath id="a718c93214"><rect x="0" width="702" y="0" height="810"/></clipPath></defs><g id="a61fd6d8d9"><g transform="matrix(1,0,0,1,54,0.000000000000039746)"><g clip-path="url(#a718c93214)"><g clip-rule="nonzero" clip-path="url(#d0f0587029)"><g transform="matrix(1,0,0,1,-0.000000000000007105,0.000000000000039746)"><g id="65c8f942aa" clip-path="url(#2c54fc030c)"><g clip-rule="nonzero" clip-path="url(#0eb32f2ae1)"><path style=" stroke:none;fill-rule:nonzero;fill:#000000;fill-opacity:1;" d="M 0.757812 0 L 701.242188 0 L 701.242188 809.933594 L 0.757812 809.933594 Z M 0.757812 0 "/></g></g></g></g><g clip-rule="nonzero" clip-path="url(#7c19fd87f1)"><g transform="matrix(1,0,0,1,83,621)"><g id="4031b70a1a" clip-path="url(#996fb86303)"><g clip-rule="nonzero" clip-path="url(#6d818f0af3)"><path style=" stroke:none;fill-rule:nonzero;fill:#00aeef;fill-opacity:1;" d="M 0.382812 0.0195312 L 535.769531 0.0195312 L 535.769531 106.761719 L 0.382812 106.761719 Z M 0.382812 0.0195312 "/></g></g></g></g><g clip-rule="nonzero" clip-path="url(#b71e2745a5)"><g clip-rule="nonzero" clip-path="url(#f4b68b38b1)"><g transform="matrix(1,0,0,1,142,620)"><g id="b790cb23a6" clip-path="url(#b6f0ffb793)"><g clip-rule="nonzero" clip-path="url(#e23652eafa)"><g clip-rule="nonzero" clip-path="url(#7160eab3f9)"><path style=" stroke:none;fill-rule:nonzero;fill:#ec008c;fill-opacity:1;" d="M 443.453125 107.734375 L 0.214844 107.734375 L 0.214844 0.988281 L 443.453125 0.988281 Z M 443.453125 107.734375 "/></g></g></g></g></g></g><g clip-rule="nonzero" clip-path="url(#693116b246)"><g clip-rule="nonzero" clip-path="url(#cc9ae32dbb)"><g transform="matrix(1,0,0,1,363,620)"><g id="71e13b921b" clip-path="url(#a1f9fa5706)"><g clip-rule="nonzero" clip-path="url(#93c6535e9a)"><g clip-rule="nonzero" clip-path="url(#c6ed5b4269)"><path style=" stroke:none;fill-rule:nonzero;fill:#ffd93f;fill-opacity:1;" d="M 255.546875 107.734375 L 0.777344 107.734375 L 0.777344 0.988281 L 255.546875 0.988281 Z M 255.546875 107.734375 "/></g></g></g></g></g></g><g clip-rule="nonzero" clip-path="url(#e38517e7e6)"><g transform="matrix(1,0,0,1,491,621)"><g id="1c19f9544e" clip-path="url(#f525a0f5ea)"><g clip-rule="nonzero" clip-path="url(#95faa4749c)"><path style=" stroke:none;fill-rule:nonzero;fill:#ffd93f;fill-opacity:1;" d="M 0.203125 0.0195312 L 127.796875 0.0195312 L 127.796875 106.761719 L 0.203125 106.761719 Z M 0.203125 0.0195312 "/></g></g></g></g><path style=" stroke:none;fill-rule:nonzero;fill:#ffffff;fill-opacity:1;" d="M 368.667969 71.140625 C 368.578125 71.539062 368.484375 153.515625 368.484375 253.371094 C 368.484375 398.113281 368.578125 434.992188 368.882812 435.386719 C 369.339844 435.996094 370.859375 436.664062 377.105469 438.980469 C 384.414062 441.691406 388.128906 442.542969 398.511719 443.820312 C 409.535156 445.191406 421.441406 445.222656 433.199219 443.945312 C 437.828125 443.457031 438.558594 443.304688 438.890625 442.785156 C 439.015625 442.605469 439.136719 415.347656 439.136719 382.246094 L 439.136719 322.011719 L 499.21875 321.949219 L 559.273438 321.859375 L 559.273438 253.949219 L 439.289062 253.644531 L 439.195312 192.648438 L 439.136719 131.683594 L 619.113281 131.683594 L 619.050781 101.136719 L 618.960938 70.625 L 493.921875 70.53125 L 368.851562 70.472656 Z M 368.667969 71.140625 "/><path style=" stroke:none;fill-rule:nonzero;fill:#ffffff;fill-opacity:1;" d="M 109.027344 177.054688 L 84.210938 177.207031 L 84.210938 528.023438 L 115.605469 528.113281 C 141.734375 528.175781 147.0625 528.113281 147.367188 527.78125 C 147.613281 527.476562 147.734375 510.941406 147.765625 466.328125 L 147.855469 405.300781 L 150.902344 404.902344 C 152.574219 404.691406 156.960938 404.476562 160.644531 404.445312 C 166.675781 404.417969 167.648438 404.476562 170.390625 405.117188 C 173.832031 405.910156 175.203125 406.242188 176.878906 406.640625 C 179.496094 407.277344 187.902344 410.261719 189.789062 411.269531 C 190.09375 411.421875 190.460938 411.542969 190.640625 411.542969 C 190.917969 411.542969 192.988281 412.425781 195.820312 413.796875 C 197.097656 414.375 204.710938 418.453125 207.542969 420.039062 C 210.648438 421.773438 222.039062 429.90625 226.453125 433.5 C 232.695312 438.585938 243.507812 449.546875 250.785156 458.132812 C 257.210938 465.6875 280.84375 489.59375 286.476562 494.191406 C 292.628906 499.214844 302.769531 506.371094 306.363281 508.230469 C 306.941406 508.535156 309.011719 509.8125 310.929688 511.0625 C 313.914062 513.011719 317.660156 515.234375 323.8125 518.675781 C 329.445312 521.839844 330.847656 522.664062 332.703125 523.851562 C 335.046875 525.375 341.597656 528.785156 342.144531 528.785156 C 342.328125 528.785156 343.089844 529.089844 343.820312 529.425781 C 344.582031 529.789062 345.523438 530.1875 345.949219 530.339844 C 346.378906 530.460938 348.082031 531.070312 349.757812 531.679688 C 351.433594 532.285156 353.078125 532.867188 353.410156 532.957031 C 353.746094 533.019531 354.292969 533.199219 354.628906 533.351562 C 354.964844 533.503906 355.574219 533.6875 356 533.777344 C 356.730469 533.902344 357.097656 534.023438 360.566406 535.027344 C 363.429688 535.878906 364.34375 536.125 365.59375 536.398438 C 367.144531 536.703125 369.0625 537.25 369.855469 537.617188 C 370.191406 537.769531 370.953125 537.953125 371.53125 538.074219 C 372.109375 538.164062 373.296875 538.378906 374.121094 538.558594 C 374.972656 538.710938 377.226562 538.957031 379.144531 539.078125 C 381.0625 539.199219 382.828125 539.414062 383.074219 539.566406 C 383.316406 539.71875 384.960938 539.960938 386.726562 540.113281 C 388.492188 540.265625 391.386719 540.539062 393.152344 540.722656 C 400.429688 541.453125 433.65625 540.539062 435.207031 539.566406 C 435.453125 539.414062 437.277344 539.199219 439.289062 539.078125 C 441.296875 538.925781 444.039062 538.710938 445.378906 538.53125 C 446.71875 538.378906 448.851562 538.132812 450.097656 538.011719 C 451.347656 537.859375 452.566406 537.648438 452.777344 537.523438 C 452.992188 537.371094 454.636719 537.128906 456.433594 536.976562 C 458.230469 536.792969 460.667969 536.550781 461.824219 536.398438 C 463.894531 536.125 466.300781 535.851562 471.78125 535.242188 C 473.242188 535.058594 474.582031 534.816406 474.796875 534.691406 C 474.980469 534.570312 475.984375 534.359375 477.019531 534.234375 C 478.023438 534.082031 479.636719 533.839844 480.550781 533.65625 C 481.464844 533.476562 483.324219 533.199219 484.664062 533.046875 C 487.007812 532.804688 488.835938 532.410156 490.144531 531.832031 C 491.269531 531.34375 491.972656 531.128906 493.191406 530.886719 C 494.53125 530.613281 496.050781 530.277344 498.367188 529.699219 C 499.21875 529.484375 500.40625 529.210938 501.046875 529.058594 C 502.84375 528.632812 504.671875 528.113281 505.980469 527.71875 C 506.648438 527.507812 507.808594 527.171875 508.566406 526.957031 C 509.328125 526.773438 510.488281 526.46875 511.15625 526.289062 C 513.289062 525.710938 517.214844 524.460938 517.765625 524.1875 C 518.070312 524.035156 518.464844 523.914062 518.679688 523.914062 C 519.074219 523.914062 522.972656 522.511719 523.855469 522.054688 C 524.160156 521.902344 524.617188 521.78125 524.859375 521.78125 C 525.105469 521.78125 525.5625 521.660156 525.867188 521.507812 C 526.6875 521.050781 528.574219 520.257812 528.789062 520.257812 C 528.972656 520.257812 529.914062 519.863281 533.480469 518.25 C 534.363281 517.851562 535.152344 517.515625 535.246094 517.515625 C 535.335938 517.515625 536.644531 516.9375 538.199219 516.207031 C 539.75 515.476562 542.582031 514.230469 544.503906 513.40625 C 546.421875 512.613281 548.703125 511.640625 549.527344 511.273438 C 550.378906 510.910156 551.597656 510.421875 552.269531 510.179688 C 552.9375 509.933594 554.976562 509.050781 556.773438 508.167969 C 558.570312 507.285156 560.1875 506.554688 560.335938 506.554688 C 560.671875 506.554688 563.445312 505.335938 565.574219 504.238281 C 566.398438 503.84375 567.28125 503.507812 567.554688 503.507812 C 567.859375 503.507812 568.53125 503.265625 569.015625 502.960938 C 569.535156 502.65625 570.90625 502.046875 572.0625 501.558594 C 576.78125 499.671875 577.269531 499.214844 576.386719 497.632812 C 575.257812 495.714844 574.40625 493.917969 572.214844 489.042969 C 571.820312 488.191406 570.933594 486.273438 570.234375 484.78125 C 569.535156 483.257812 568.558594 481.21875 568.101562 480.214844 C 567.644531 479.207031 566.824219 477.410156 566.277344 476.253906 C 565.726562 475.066406 564.753906 473.027344 564.144531 471.6875 C 562.652344 468.429688 562.195312 467.421875 560.246094 463.3125 C 559.332031 461.394531 558.359375 459.261719 558.054688 458.589844 C 556.867188 455.882812 554.613281 451.070312 552.023438 445.679688 C 551.660156 444.949219 551.203125 444.308594 550.988281 444.21875 C 550.625 444.066406 546.695312 445.894531 545.71875 446.652344 C 545.050781 447.203125 543.921875 447.78125 543.621094 447.78125 C 543.46875 447.78125 542.371094 448.328125 541.214844 449 C 540.027344 449.667969 538.199219 450.492188 537.132812 450.855469 C 536.066406 451.222656 534.363281 451.921875 533.296875 452.378906 C 532.261719 452.867188 531.347656 453.261719 531.285156 453.261719 C 531.226562 453.261719 530.007812 453.808594 528.605469 454.449219 C 525.316406 456.003906 524.007812 456.550781 521.96875 457.222656 C 520.230469 457.769531 515.574219 459.503906 514.507812 459.960938 C 513.804688 460.265625 509.9375 461.546875 508.113281 462.0625 C 507.441406 462.246094 505.796875 462.734375 504.457031 463.160156 C 503.117188 463.585938 501.867188 463.921875 501.65625 463.921875 C 501.441406 463.921875 501.015625 464.042969 500.710938 464.195312 C 500.4375 464.347656 499.433594 464.621094 498.519531 464.835938 C 497.605469 465.015625 495.746094 465.535156 494.40625 465.929688 C 493.066406 466.328125 491.421875 466.8125 490.753906 466.996094 C 490.082031 467.179688 489.199219 467.453125 488.773438 467.605469 C 488.347656 467.726562 487.128906 468.0625 486.035156 468.335938 C 484.9375 468.609375 483.78125 468.945312 483.445312 469.097656 C 483.109375 469.21875 482.289062 469.492188 481.617188 469.675781 C 480.949219 469.859375 479.179688 470.347656 477.660156 470.773438 C 476.167969 471.199219 474.371094 471.6875 473.699219 471.867188 C 473.03125 472.050781 472.207031 472.324219 471.871094 472.449219 C 470.257812 473.117188 468.15625 473.664062 467.335938 473.664062 C 465.933594 473.664062 462.492188 474.335938 459.234375 475.21875 C 457.46875 475.707031 455.824219 476.039062 453.753906 476.40625 C 450.523438 476.953125 449.003906 477.257812 446.75 477.867188 C 441.296875 479.269531 433.53125 480.363281 425.433594 480.882812 C 417.851562 481.339844 395.769531 481.035156 392.695312 480.394531 C 391.875 480.214844 389.953125 479.910156 388.433594 479.726562 C 385.628906 479.390625 384.046875 479.148438 380.820312 478.570312 C 379.8125 478.417969 378.167969 478.113281 377.164062 477.960938 C 375.582031 477.683594 367.632812 475.308594 365.898438 474.578125 C 364.585938 474.03125 360.203125 472.417969 358.039062 471.6875 C 356.761719 471.261719 354.875 470.527344 353.808594 470.011719 C 352.742188 469.523438 351.492188 468.976562 351.035156 468.824219 C 350 468.429688 342.90625 463.617188 339.859375 461.242188 C 332.644531 455.605469 321.34375 444.402344 313.671875 435.296875 C 312.757812 434.199219 310.898438 432.160156 309.53125 430.726562 C 308.160156 429.296875 306.574219 427.589844 306.027344 426.921875 C 300.578125 420.433594 293.328125 412.972656 280.171875 400.273438 C 266.5 387.089844 264.976562 385.625 261.75 382.703125 C 260.074219 381.179688 258.429688 379.628906 258.09375 379.261719 C 257.757812 378.898438 256.359375 377.617188 254.957031 376.460938 C 253.585938 375.304688 252.550781 374.207031 252.644531 374.023438 C 252.765625 373.871094 253.617188 373.203125 254.5625 372.59375 C 263.726562 366.59375 273.566406 357.976562 278.496094 351.582031 C 279.351562 350.515625 280.507812 349.082031 281.085938 348.382812 C 282.609375 346.617188 287.175781 340.191406 287.175781 339.796875 C 287.175781 339.734375 287.632812 338.972656 288.183594 338.089844 C 289.308594 336.324219 290.34375 334.160156 291.59375 331.148438 C 292.050781 330.050781 292.597656 328.742188 292.8125 328.253906 C 293.023438 327.734375 293.570312 326.367188 294.027344 325.207031 C 294.484375 324.019531 294.972656 322.804688 295.125 322.46875 C 296.984375 317.929688 298.046875 306.328125 297.53125 295.972656 C 297.105469 287.019531 296.921875 285.589844 295.367188 277.398438 C 294.699219 273.683594 294.210938 271.640625 293.269531 268.566406 C 293.117188 268.050781 292.871094 267.164062 292.71875 266.585938 C 292.382812 265.339844 290.007812 259.21875 289.003906 256.996094 C 287.175781 252.945312 281.878906 242.46875 280.84375 240.855469 C 280.203125 239.851562 279.078125 238.207031 278.316406 237.199219 C 277.585938 236.195312 276.761719 235.097656 276.519531 234.734375 C 275.757812 233.636719 273.566406 230.773438 273.109375 230.316406 C 272.894531 230.074219 271.3125 228.308594 269.605469 226.390625 C 263.726562 219.71875 256.601562 213.265625 249.261719 207.933594 C 245.972656 205.558594 242.410156 203.152344 240.738281 202.179688 C 239.914062 201.691406 239.152344 201.207031 239.0625 201.113281 C 238.910156 200.929688 237.84375 200.320312 233.734375 198.007812 C 230.414062 196.179688 219.90625 191.066406 219.417969 191.066406 C 219.359375 191.066406 218.566406 190.730469 217.683594 190.332031 C 214.273438 188.78125 205.503906 185.644531 200.996094 184.363281 C 200.234375 184.152344 199.078125 183.816406 198.40625 183.605469 C 197.738281 183.390625 196.640625 183.054688 195.972656 182.902344 C 195.300781 182.71875 194.203125 182.445312 193.535156 182.265625 C 190.855469 181.5625 186.742188 180.621094 185.3125 180.34375 C 176.664062 178.792969 171.519531 178 168.105469 177.605469 C 162.65625 177.027344 143.867188 176.84375 109.027344 177.054688 Z M 172.066406 233.667969 C 177.546875 234.214844 180.441406 234.734375 185.007812 235.980469 C 186.683594 236.4375 188.480469 236.894531 188.96875 237.046875 C 189.878906 237.261719 192.957031 238.359375 194.144531 238.875 C 194.480469 239.027344 195.515625 239.453125 196.429688 239.851562 C 203.28125 242.742188 210.832031 247.464844 214.578125 251.179688 C 221.734375 258.363281 223.804688 261.074219 226.757812 267.105469 C 228.921875 271.519531 228.890625 271.460938 230.261719 277.003906 C 230.414062 277.640625 230.65625 278.675781 230.808594 279.285156 C 232.117188 284.613281 232.421875 289.304688 231.722656 293.691406 C 231.570312 294.785156 231.296875 297.039062 231.113281 298.714844 C 230.597656 303.984375 230.015625 307.667969 229.378906 309.679688 C 229.226562 310.164062 228.890625 311.199219 228.675781 311.960938 C 228.464844 312.722656 227.613281 314.609375 226.789062 316.195312 C 225.359375 318.933594 221.519531 325.332031 221.125 325.664062 C 221.035156 325.757812 220.578125 326.304688 220.121094 326.882812 C 219.695312 327.460938 219.085938 328.222656 218.75 328.558594 C 218.445312 328.894531 217.320312 330.203125 216.222656 331.453125 C 213.148438 335.042969 211.105469 337.117188 208.304688 339.492188 C 203.890625 343.207031 195.089844 348.808594 193.597656 348.808594 C 193.382812 348.808594 193.078125 348.929688 192.894531 349.054688 C 192.621094 349.328125 186.5625 351.277344 184.398438 351.824219 C 180.53125 352.769531 176.480469 353.5 171.914062 354.015625 C 167.46875 354.535156 153.886719 354.046875 149.988281 353.226562 C 149.5 353.132812 148.769531 352.980469 148.375 352.890625 L 147.703125 352.769531 L 147.765625 293.597656 L 147.855469 234.460938 L 149.683594 234.246094 C 150.6875 234.125 153.214844 233.882812 155.316406 233.699219 C 157.386719 233.515625 159.183594 233.273438 159.277344 233.179688 C 159.488281 232.96875 168.351562 233.300781 172.066406 233.667969 Z M 172.066406 233.667969 "/></g></g></g></svg>