<svg xmlns="http://www.w3.org/2000/svg" xmlns:xlink="http://www.w3.org/1999/xlink" width="100" zoomAndPan="magnify" viewBox="0 0 75 299.999988" height="400" preserveAspectRatio="xMidYMid meet" version="1.2"><defs><clipPath id="fb4e56ec0f"><path d="M 37.5 0 C 47.445312 0 56.984375 3.949219 64.015625 10.984375 C 71.050781 18.015625 75 27.554688 75 37.5 L 75 262.5 C 75 272.445312 71.050781 281.984375 64.015625 289.015625 C 56.984375 296.050781 47.445312 300 37.5 300 C 27.554688 300 18.015625 296.050781 10.984375 289.015625 C 3.949219 281.984375 0 272.445312 0 262.5 L 0 37.5 C 0 27.554688 3.949219 18.015625 10.984375 10.984375 C 18.015625 3.949219 27.554688 0 37.5 0 Z M 37.5 0 "/></clipPath><clipPath id="7133c94104"><path d="M 37.5 0 C 47.445312 0 56.984375 3.949219 64.015625 10.984375 C 71.050781 18.015625 75 27.554688 75 37.5 L 75 262.5 C 75 272.445312 71.050781 281.984375 64.015625 289.015625 C 56.984375 296.050781 47.445312 300 37.5 300 C 27.554688 300 18.015625 296.050781 10.984375 289.015625 C 3.949219 281.984375 0 272.445312 0 262.5 L 0 37.5 C 0 27.554688 3.949219 18.015625 10.984375 10.984375 C 18.015625 3.949219 27.554688 0 37.5 0 Z M 37.5 0 "/></clipPath><clipPath id="f5f52ed20b"><rect x="0" width="75" y="0" height="300"/></clipPath><clipPath id="890feccb31"><path d="M 0 0 L 37.5 0 L 37.5 300 L 0 300 Z M 0 0 "/></clipPath><clipPath id="eb71ed69ae"><path d="M 0 0 L 37.5 0 L 37.5 300 L 0 300 Z M 0 0 "/></clipPath><clipPath id="0ae1f95c54"><rect x="0" width="38" y="0" height="300"/></clipPath><clipPath id="e5ef0e2c5c"><path d="M 14 35.21875 L 61 35.21875 L 61 78 L 14 78 Z M 14 35.21875 "/></clipPath><clipPath id="b03604b5db"><path d="M 24.125 97.796875 L 44.375 97.796875 L 44.375 113 L 24.125 113 Z M 24.125 97.796875 "/></clipPath><clipPath id="f28281a57d"><path d="M 24.125 140 L 44.375 140 L 44.375 156 L 24.125 156 Z M 24.125 140 "/></clipPath><clipPath id="f7a66b88b0"><path d="M 29 156 L 44.375 156 L 44.375 171.296875 L 29 171.296875 Z M 29 156 "/></clipPath><clipPath id="bc909624a8"><path d="M 29 115 L 44.375 115 L 44.375 124 L 29 124 Z M 29 115 "/></clipPath><clipPath id="fa8557e78e"><path d="M 29 125 L 44.375 125 L 44.375 139 L 29 139 Z M 29 125 "/></clipPath><clipPath id="f7c3310810"><path d="M 30.007812 227 L 50 227 L 50 243 L 30.007812 243 Z M 30.007812 227 "/></clipPath><clipPath id="8f03fe2a98"><path d="M 30.007812 177.621094 L 45 177.621094 L 45 192 L 30.007812 192 Z M 30.007812 177.621094 "/></clipPath><clipPath id="3649b00a1e"><path d="M 30.007812 193 L 45 193 L 45 209 L 30.007812 209 Z M 30.007812 193 "/></clipPath><clipPath id="7bc7599930"><path d="M 30.007812 209 L 45 209 L 45 226 L 30.007812 226 Z M 30.007812 209 "/></clipPath><clipPath id="3558e56505"><path d="M 30.007812 250 L 45 250 L 45 264.621094 L 30.007812 264.621094 Z M 30.007812 250 "/></clipPath><clipPath id="8e6694fe45"><path d="M 30.007812 244 L 45 244 L 45 249 L 30.007812 249 Z M 30.007812 244 "/></clipPath></defs><g id="de842aee43"><g clip-rule="nonzero" clip-path="url(#fb4e56ec0f)"><g transform="matrix(1,0,0,1,0,0)"><g clip-path="url(#f5f52ed20b)"><g clip-rule="nonzero" clip-path="url(#7133c94104)"><rect x="0" width="75" height="300" y="0" style="fill:#1800ad;fill-opacity:1;stroke:none;"/></g></g></g></g><g clip-rule="nonzero" clip-path="url(#890feccb31)"><g transform="matrix(1,0,0,1,0,0)"><g clip-path="url(#0ae1f95c54)"><g clip-rule="nonzero" clip-path="url(#eb71ed69ae)"><path style=" stroke:none;fill-rule:nonzero;fill:#1800ad;fill-opacity:1;" d="M 0 0 L 37.5 0 L 37.5 300 L 0 300 Z M 0 0 "/></g></g></g></g><g clip-rule="nonzero" clip-path="url(#e5ef0e2c5c)"><path style=" stroke:none;fill-rule:nonzero;fill:#ffffff;fill-opacity:1;" d="M 60.984375 58.542969 C 60.960938 57.890625 60.847656 56.320312 60.808594 56.125 C 60.804688 56.101562 60.789062 55.957031 60.769531 55.804688 C 60.753906 55.652344 60.707031 55.320312 60.667969 55.070312 C 60.628906 54.820312 60.585938 54.5 60.570312 54.359375 C 60.535156 54.019531 60.371094 53.257812 60.222656 52.722656 C 60.199219 52.648438 60.171875 52.542969 60.164062 52.492188 C 60.152344 52.4375 60.121094 52.332031 60.09375 52.25 C 60.0625 52.171875 60.015625 52.03125 59.988281 51.941406 C 59.914062 51.699219 59.867188 51.554688 59.789062 51.359375 C 59.75 51.261719 59.707031 51.140625 59.691406 51.085938 C 59.636719 50.894531 59.390625 50.28125 59.246094 49.996094 C 59.207031 49.917969 59.164062 49.820312 59.148438 49.777344 C 59.132812 49.734375 59.066406 49.589844 58.996094 49.457031 C 58.929688 49.328125 58.855469 49.171875 58.832031 49.113281 C 58.804688 49.054688 58.761719 48.957031 58.730469 48.890625 C 58.699219 48.824219 58.648438 48.707031 58.613281 48.628906 C 58.410156 48.183594 57.9375 47.285156 57.601562 46.710938 C 57.308594 46.210938 56.863281 45.519531 56.597656 45.152344 C 56.558594 45.097656 56.492188 45.007812 56.457031 44.953125 C 56.019531 44.339844 55.417969 43.601562 54.804688 42.917969 C 54.59375 42.679688 53.671875 41.746094 53.457031 41.550781 C 52.609375 40.78125 51.964844 40.25 51.140625 39.660156 C 50.542969 39.230469 49.589844 38.621094 49.042969 38.320312 C 49 38.296875 48.851562 38.214844 48.714844 38.140625 C 48.335938 37.929688 47.566406 37.546875 47.230469 37.398438 C 47.179688 37.375 47.101562 37.339844 47.054688 37.316406 C 46.917969 37.257812 46.304688 36.996094 46.292969 36.996094 C 46.289062 36.996094 46.253906 36.980469 46.21875 36.964844 C 46.082031 36.902344 45.601562 36.722656 45.128906 36.558594 C 44.914062 36.484375 44.480469 36.34375 44.140625 36.238281 C 43.960938 36.183594 43.5 36.058594 43.15625 35.96875 C 42.847656 35.890625 42.109375 35.726562 41.824219 35.675781 C 40.898438 35.507812 40.125 35.402344 39.375 35.34375 C 38.753906 35.292969 38.601562 35.285156 38.167969 35.269531 C 37.59375 35.25 37.132812 35.25 36.5625 35.269531 C 36.136719 35.285156 36.011719 35.292969 35.445312 35.335938 C 34.21875 35.425781 32.734375 35.671875 31.566406 35.96875 C 31.324219 36.03125 31.058594 36.101562 30.894531 36.152344 C 30.800781 36.175781 30.707031 36.207031 30.679688 36.210938 C 30.566406 36.242188 29.980469 36.425781 29.800781 36.488281 C 28.894531 36.792969 28.046875 37.132812 27.285156 37.492188 C 25.542969 38.316406 24.023438 39.261719 22.542969 40.449219 C 21.011719 41.675781 19.507812 43.246094 18.390625 44.785156 C 18 45.328125 17.777344 45.648438 17.472656 46.136719 C 15.414062 49.410156 14.246094 53.082031 14.027344 56.953125 C 14 57.421875 14.003906 58.867188 14.027344 59.332031 C 14.109375 60.773438 14.328125 62.21875 14.671875 63.582031 C 15.347656 66.273438 16.488281 68.78125 18.078125 71.0625 C 18.753906 72.03125 19.457031 72.886719 20.328125 73.808594 C 20.472656 73.960938 20.667969 74.167969 20.761719 74.28125 C 20.992188 74.542969 21.511719 75.0625 21.761719 75.273438 C 22.882812 76.230469 24.109375 76.878906 25.417969 77.207031 C 25.902344 77.332031 26.367188 77.402344 26.855469 77.425781 C 27.195312 77.445312 27.710938 77.429688 27.957031 77.390625 C 28.703125 77.28125 29.21875 77.132812 29.769531 76.867188 C 30.949219 76.296875 31.851562 75.328125 32.351562 74.085938 C 32.507812 73.703125 32.597656 73.382812 32.695312 72.875 C 32.816406 72.269531 32.816406 71.339844 32.695312 70.625 C 32.621094 70.15625 32.519531 69.742188 32.382812 69.347656 C 31.90625 67.9375 31.144531 66.71875 30.054688 65.632812 C 29.441406 65.019531 28.957031 64.644531 27.863281 63.953125 C 27.601562 63.789062 27.375 63.59375 26.972656 63.191406 C 26.554688 62.773438 26.4375 62.625 26.296875 62.34375 C 26.164062 62.082031 26.121094 61.894531 26.121094 61.644531 C 26.121094 61.457031 26.152344 61.304688 26.222656 61.15625 C 26.460938 60.652344 27.039062 60.28125 27.851562 60.109375 C 28.097656 60.058594 28.125 60.050781 28.359375 60.027344 C 28.789062 59.984375 29.390625 60.003906 29.828125 60.078125 C 29.964844 60.101562 30.011719 60.101562 30.148438 60.085938 C 30.371094 60.058594 30.433594 60.042969 30.589844 59.96875 C 30.785156 59.875 30.945312 59.714844 31.042969 59.507812 C 31.128906 59.332031 31.15625 59.21875 31.179688 58.957031 C 31.207031 58.6875 31.257812 58.351562 31.304688 58.144531 C 31.703125 56.410156 32.832031 54.96875 34.40625 54.183594 C 35.796875 53.488281 37.363281 53.371094 38.839844 53.851562 C 39.746094 54.144531 40.582031 54.667969 41.246094 55.359375 C 41.417969 55.535156 41.484375 55.621094 41.554688 55.738281 C 41.625 55.859375 41.683594 55.929688 41.816406 56.058594 C 41.992188 56.234375 42.085938 56.300781 42.289062 56.386719 C 42.460938 56.460938 42.578125 56.492188 42.753906 56.503906 C 43.230469 56.539062 43.636719 56.402344 43.96875 56.085938 C 44.191406 55.875 44.320312 55.652344 44.414062 55.332031 C 44.445312 55.214844 44.597656 54.972656 44.78125 54.742188 C 45.40625 53.960938 46.339844 53.417969 47.320312 53.273438 C 47.730469 53.214844 48.015625 53.210938 48.425781 53.257812 C 49.65625 53.40625 50.765625 54.132812 51.402344 55.207031 C 51.539062 55.4375 51.609375 55.59375 51.734375 55.910156 C 51.9375 56.441406 52.011719 57.011719 51.957031 57.617188 C 51.890625 58.34375 51.914062 59.304688 52.011719 60.019531 C 52.425781 62.949219 53.984375 65.242188 55.960938 65.820312 C 56.6875 66.03125 57.414062 66.003906 58.136719 65.738281 C 58.667969 65.539062 59.277344 65.117188 59.707031 64.644531 C 59.976562 64.34375 60.144531 64.054688 60.355469 63.535156 C 60.550781 63.050781 60.574219 62.976562 60.691406 62.429688 C 60.808594 61.894531 60.851562 61.570312 60.933594 60.601562 C 60.957031 60.289062 61.003906 58.765625 60.992188 58.6875 C 60.988281 58.679688 60.984375 58.613281 60.984375 58.542969 Z M 60.984375 58.542969 "/></g><path style=" stroke:none;fill-rule:nonzero;fill:#ffffff;fill-opacity:1;" d="M 58.210938 84.132812 C 58.203125 84.042969 58.183594 83.902344 58.167969 83.824219 C 58.152344 83.742188 58.105469 83.523438 58.066406 83.332031 C 57.964844 82.847656 57.957031 82.761719 57.945312 82.238281 L 57.933594 81.777344 L 57.867188 81.585938 C 57.835938 81.480469 57.789062 81.351562 57.777344 81.296875 C 57.742188 81.179688 57.597656 80.890625 57.511719 80.757812 C 57.386719 80.578125 57.101562 80.316406 56.820312 80.128906 C 56.574219 79.964844 56.179688 79.769531 55.957031 79.703125 C 55.722656 79.632812 55.632812 79.585938 55.285156 79.371094 C 55.136719 79.277344 54.957031 79.167969 54.886719 79.132812 C 54.351562 78.839844 53.765625 78.730469 53.316406 78.839844 C 52.914062 78.9375 52.761719 79.015625 52.363281 79.324219 C 52.1875 79.460938 52.066406 79.535156 51.863281 79.632812 C 51.542969 79.78125 51.257812 80.011719 50.878906 80.425781 C 50.621094 80.703125 50.480469 80.878906 50.40625 81.023438 C 50.332031 81.164062 50.183594 81.765625 50.160156 82.03125 C 50.148438 82.148438 50.1875 82.699219 50.21875 82.878906 C 50.226562 82.929688 50.25 83.054688 50.269531 83.148438 C 50.332031 83.421875 50.386719 83.855469 50.421875 84.304688 C 50.457031 84.695312 50.511719 84.910156 50.726562 85.464844 C 50.796875 85.640625 50.886719 85.882812 50.933594 86.003906 C 51.050781 86.320312 51.109375 86.4375 51.246094 86.660156 C 51.539062 87.128906 51.929688 87.570312 52.339844 87.898438 C 52.757812 88.234375 53.316406 88.523438 53.636719 88.570312 C 54.1875 88.648438 54.597656 88.652344 54.957031 88.578125 C 55.324219 88.5 55.742188 88.28125 56.316406 87.851562 C 56.589844 87.644531 56.691406 87.558594 57.035156 87.238281 C 57.324219 86.964844 57.351562 86.933594 57.449219 86.773438 C 57.507812 86.675781 57.601562 86.527344 57.65625 86.441406 C 57.710938 86.351562 57.808594 86.1875 57.863281 86.074219 C 58.089844 85.628906 58.152344 85.398438 58.207031 84.828125 C 58.234375 84.550781 58.234375 84.390625 58.210938 84.132812 Z M 58.210938 84.132812 "/><path style=" stroke:none;fill-rule:nonzero;fill:#ffffff;fill-opacity:1;" d="M 55.101562 70.175781 C 55.023438 69.46875 54.882812 68.988281 54.574219 68.4375 C 54.253906 67.859375 53.878906 67.40625 53.441406 67.050781 C 53.214844 66.871094 53 66.734375 52.6875 66.585938 C 52.339844 66.417969 52.171875 66.355469 51.742188 66.230469 C 51.617188 66.195312 51.480469 66.15625 51.4375 66.144531 C 51.226562 66.078125 50.855469 66.027344 50.421875 66.007812 C 50.167969 65.996094 49.640625 65.945312 49.402344 65.914062 C 48.953125 65.847656 48.429688 65.835938 48.058594 65.871094 C 47.773438 65.902344 47.679688 65.933594 47.476562 66.070312 C 47.117188 66.308594 47.039062 66.460938 47.039062 66.921875 L 47.039062 67.15625 L 46.875 67.261719 C 46.609375 67.4375 46.4375 67.628906 46.351562 67.839844 C 46.316406 67.9375 46.269531 68.183594 46.269531 68.304688 C 46.269531 68.503906 46.371094 68.953125 46.515625 69.421875 C 46.597656 69.675781 46.640625 69.820312 46.734375 70.136719 C 46.789062 70.3125 46.855469 70.519531 46.882812 70.597656 C 46.910156 70.679688 46.972656 70.894531 47.03125 71.078125 C 47.371094 72.214844 47.46875 72.480469 47.804688 73.144531 C 48.007812 73.546875 48.15625 73.785156 48.449219 74.171875 C 48.640625 74.429688 48.773438 74.5625 49.089844 74.800781 C 49.269531 74.9375 49.324219 74.960938 49.515625 74.984375 C 49.800781 75.019531 50.203125 74.960938 50.570312 74.828125 C 50.8125 74.742188 51.039062 74.640625 51.132812 74.570312 C 51.304688 74.449219 51.628906 74.296875 51.953125 74.179688 C 52.03125 74.152344 52.148438 74.105469 52.21875 74.070312 C 52.382812 73.988281 52.882812 73.675781 53.121094 73.507812 C 53.53125 73.214844 54.136719 72.671875 54.523438 72.253906 C 54.667969 72.09375 54.699219 72.050781 54.777344 71.886719 C 54.957031 71.511719 55.003906 71.386719 55.0625 71.085938 C 55.09375 70.925781 55.105469 70.828125 55.109375 70.589844 C 55.113281 70.429688 55.109375 70.242188 55.101562 70.175781 Z M 55.101562 70.175781 "/><path style=" stroke:none;fill-rule:nonzero;fill:#ffffff;fill-opacity:1;" d="M 45.878906 80.96875 C 45.851562 80.839844 45.734375 80.519531 45.640625 80.324219 C 45.601562 80.242188 45.546875 80.117188 45.519531 80.050781 C 45.429688 79.839844 45.195312 79.484375 44.914062 79.140625 C 44.609375 78.765625 44.121094 78.25 43.8125 77.976562 C 43.710938 77.890625 43.625 77.8125 43.621094 77.808594 C 43.597656 77.78125 42.980469 77.285156 42.816406 77.164062 C 42.605469 77.003906 42.210938 76.746094 42.011719 76.636719 C 41.941406 76.601562 41.832031 76.523438 41.765625 76.464844 C 41.703125 76.410156 41.578125 76.308594 41.496094 76.242188 C 41.257812 76.046875 41.207031 75.992188 41.0625 75.773438 C 40.984375 75.660156 40.882812 75.523438 40.832031 75.46875 C 40.78125 75.417969 40.6875 75.308594 40.617188 75.230469 C 40.484375 75.074219 40.476562 75.066406 40.34375 74.972656 C 40.117188 74.800781 39.886719 74.703125 39.605469 74.65625 C 39.367188 74.617188 39.222656 74.625 38.980469 74.6875 C 38.59375 74.792969 38.464844 74.851562 38.121094 75.066406 C 37.761719 75.289062 37.535156 75.464844 37.226562 75.765625 C 36.921875 76.054688 36.863281 76.09375 36.320312 76.367188 C 35.898438 76.578125 35.828125 76.617188 35.683594 76.738281 C 35.558594 76.847656 35.476562 76.898438 35.273438 77 C 35.171875 77.050781 35.042969 77.117188 34.984375 77.152344 C 34.925781 77.1875 34.824219 77.242188 34.757812 77.277344 C 34.5 77.417969 34.496094 77.417969 34.207031 77.625 C 33.789062 77.925781 33.59375 78.09375 33.507812 78.238281 C 33.335938 78.519531 33.1875 78.863281 33.148438 79.070312 C 33.136719 79.121094 33.125 79.332031 33.117188 79.542969 L 33.105469 79.929688 L 33.023438 80.09375 C 32.917969 80.308594 32.910156 80.332031 32.882812 80.484375 C 32.855469 80.632812 32.851562 80.820312 32.871094 80.996094 C 32.882812 81.066406 32.894531 81.203125 32.90625 81.296875 C 32.949219 81.707031 33.011719 81.914062 33.210938 82.34375 C 33.246094 82.417969 33.292969 82.53125 33.316406 82.589844 C 33.382812 82.777344 33.429688 82.878906 33.496094 82.984375 C 33.527344 83.035156 33.566406 83.117188 33.578125 83.164062 C 33.601562 83.265625 33.683594 83.492188 33.746094 83.605469 C 33.816406 83.746094 33.890625 83.832031 34.328125 84.292969 C 34.789062 84.777344 34.839844 84.839844 35.226562 85.417969 C 35.375 85.636719 35.542969 85.886719 35.605469 85.96875 C 35.886719 86.351562 35.960938 86.445312 36.046875 86.546875 C 36.097656 86.601562 36.230469 86.753906 36.339844 86.878906 C 36.566406 87.140625 36.976562 87.554688 37.25 87.796875 C 37.464844 87.984375 37.488281 88.003906 37.65625 88.089844 C 37.722656 88.128906 37.824219 88.1875 37.875 88.222656 C 37.992188 88.300781 38.113281 88.359375 38.335938 88.4375 C 38.585938 88.523438 38.71875 88.542969 39.007812 88.542969 C 39.308594 88.542969 39.441406 88.523438 39.773438 88.410156 C 40.207031 88.269531 40.589844 88.0625 40.921875 87.796875 C 41.027344 87.710938 41.128906 87.628906 41.144531 87.617188 C 41.171875 87.597656 41.230469 87.597656 41.476562 87.613281 C 41.832031 87.636719 41.964844 87.625 42.359375 87.542969 C 42.738281 87.460938 42.855469 87.40625 43.207031 87.136719 C 43.59375 86.835938 43.742188 86.648438 44.140625 85.960938 C 44.1875 85.871094 44.261719 85.761719 44.296875 85.714844 C 44.507812 85.4375 44.6875 85.121094 44.859375 84.714844 C 44.941406 84.515625 45.257812 83.792969 45.355469 83.578125 C 45.375 83.53125 45.394531 83.488281 45.394531 83.484375 C 45.394531 83.480469 45.402344 83.453125 45.414062 83.425781 C 45.449219 83.347656 45.578125 83.015625 45.65625 82.796875 C 45.84375 82.28125 45.957031 81.332031 45.878906 80.96875 Z M 45.878906 80.96875 "/><path style=" stroke:none;fill-rule:nonzero;fill:#ffffff;fill-opacity:1;" d="M 41.214844 65.21875 C 41.191406 65.015625 41.121094 64.660156 41.085938 64.570312 C 40.972656 64.289062 40.730469 64.007812 40.507812 63.898438 C 40.203125 63.75 39.960938 63.703125 39.132812 63.628906 C 38.925781 63.609375 38.699219 63.585938 38.628906 63.578125 C 38.558594 63.570312 38.359375 63.554688 38.183594 63.542969 C 38.007812 63.527344 37.738281 63.507812 37.585938 63.492188 C 37.0625 63.445312 36.726562 63.457031 36.515625 63.527344 C 36.0625 63.679688 35.726562 64.121094 35.628906 64.683594 C 35.601562 64.855469 35.5625 65.152344 35.542969 65.371094 C 35.53125 65.503906 35.511719 65.582031 35.460938 65.722656 C 35.242188 66.320312 35.207031 66.472656 35.226562 66.722656 C 35.242188 66.898438 35.273438 67.011719 35.351562 67.171875 C 35.460938 67.386719 35.53125 67.472656 35.777344 67.65625 C 36.042969 67.859375 36.011719 67.839844 36.378906 68.039062 C 37.097656 68.433594 37.878906 68.730469 38.890625 68.996094 C 39.191406 69.074219 39.355469 69.058594 39.621094 68.925781 C 39.859375 68.8125 39.984375 68.671875 40.164062 68.335938 C 40.332031 68.019531 40.363281 67.917969 40.546875 67.230469 C 40.652344 66.832031 40.746094 66.628906 40.984375 66.246094 C 41.101562 66.0625 41.117188 66.039062 41.171875 65.871094 C 41.207031 65.777344 41.210938 65.730469 41.21875 65.519531 C 41.21875 65.390625 41.21875 65.253906 41.214844 65.21875 Z M 41.214844 65.21875 "/><g clip-rule="nonzero" clip-path="url(#b03604b5db)"><path style=" stroke:none;fill-rule:nonzero;fill:#ffffff;fill-opacity:1;" d="M 44.351562 104.488281 C 44.25 103.5 44.003906 102.660156 43.546875 101.761719 C 43.023438 100.734375 42.363281 99.945312 41.4375 99.25 C 41.027344 98.9375 40.726562 98.753906 40.289062 98.539062 C 39.589844 98.195312 38.890625 97.984375 38.011719 97.855469 C 37.667969 97.804688 36.285156 97.785156 35.882812 97.824219 C 34.089844 97.996094 32.625 98.671875 31.382812 99.90625 C 30.761719 100.523438 30.382812 101.046875 29.984375 101.839844 C 29.40625 102.996094 29.144531 104.242188 29.210938 105.472656 C 29.265625 106.476562 29.519531 107.367188 29.996094 108.230469 C 30.296875 108.777344 30.816406 109.429688 31.210938 109.757812 C 31.285156 109.820312 31.347656 109.878906 31.347656 109.890625 C 31.351562 109.914062 29.867188 109.910156 29.550781 109.882812 C 28.957031 109.835938 28.503906 109.6875 28.074219 109.398438 C 27.871094 109.261719 27.472656 108.847656 27.320312 108.617188 C 26.976562 108.097656 26.761719 107.492188 26.675781 106.789062 C 26.640625 106.5 26.640625 105.601562 26.675781 105.199219 C 26.789062 103.992188 27.132812 102.878906 27.585938 102.234375 C 27.65625 102.140625 27.667969 102.105469 27.667969 101.988281 C 27.667969 101.835938 27.613281 101.738281 27.484375 101.652344 L 27.40625 101.597656 L 26.359375 101.597656 C 25.136719 101.597656 25.21875 101.585938 25.027344 101.839844 C 24.769531 102.1875 24.535156 102.71875 24.34375 103.394531 C 24.078125 104.3125 23.984375 105.023438 23.984375 106.0625 C 23.984375 107.007812 24.085938 107.734375 24.339844 108.605469 C 24.640625 109.65625 25.039062 110.386719 25.710938 111.121094 C 26.582031 112.078125 27.507812 112.570312 28.832031 112.789062 L 29.152344 112.839844 L 36.476562 112.84375 C 43.757812 112.851562 43.800781 112.851562 43.890625 112.804688 C 43.941406 112.78125 44.003906 112.726562 44.035156 112.6875 L 44.089844 112.609375 L 44.09375 111.386719 L 44.101562 110.167969 L 44.050781 110.089844 C 44.019531 110.050781 43.964844 109.992188 43.933594 109.964844 C 43.871094 109.921875 43.835938 109.917969 43.039062 109.910156 L 42.210938 109.902344 L 42.488281 109.640625 C 42.636719 109.492188 42.828125 109.292969 42.914062 109.199219 C 43.65625 108.300781 44.128906 107.242188 44.308594 106.074219 C 44.363281 105.707031 44.386719 104.835938 44.351562 104.488281 Z M 41.566406 106.121094 C 41.40625 107.070312 41.019531 107.859375 40.410156 108.496094 C 39.996094 108.925781 39.558594 109.257812 39.117188 109.46875 C 38.503906 109.765625 37.828125 109.914062 37 109.945312 C 35.828125 109.984375 34.804688 109.730469 34.023438 109.207031 C 33.539062 108.882812 33.113281 108.480469 32.816406 108.0625 C 32.539062 107.671875 32.257812 107.070312 32.113281 106.558594 C 31.980469 106.089844 31.960938 105.921875 31.960938 105.328125 C 31.960938 104.824219 31.964844 104.765625 32.023438 104.488281 C 32.191406 103.699219 32.539062 102.953125 33 102.378906 C 33.5 101.761719 34.292969 101.21875 35.066406 100.964844 C 35.609375 100.785156 36.09375 100.71875 36.804688 100.71875 C 38.320312 100.71875 39.445312 101.171875 40.394531 102.167969 C 40.710938 102.5 40.910156 102.777344 41.113281 103.1875 C 41.378906 103.710938 41.546875 104.28125 41.613281 104.867188 C 41.644531 105.167969 41.625 105.800781 41.566406 106.121094 Z M 41.566406 106.121094 "/></g><g clip-rule="nonzero" clip-path="url(#f28281a57d)"><path style=" stroke:none;fill-rule:nonzero;fill:#ffffff;fill-opacity:1;" d="M 44.359375 147.835938 C 44.324219 147.367188 44.160156 146.585938 44.011719 146.1875 C 43.671875 145.28125 43.152344 144.484375 42.492188 143.847656 L 42.234375 143.597656 L 42.976562 143.597656 C 43.421875 143.597656 43.753906 143.589844 43.808594 143.574219 C 43.910156 143.546875 44.039062 143.441406 44.074219 143.351562 C 44.09375 143.304688 44.101562 142.949219 44.09375 142.070312 L 44.089844 140.847656 L 44.03125 140.769531 C 44.003906 140.730469 43.9375 140.675781 43.882812 140.652344 C 43.792969 140.609375 43.503906 140.609375 34.25 140.609375 C 25.210938 140.609375 24.707031 140.609375 24.632812 140.648438 C 24.589844 140.667969 24.519531 140.726562 24.480469 140.777344 L 24.410156 140.867188 L 24.410156 143.3125 L 24.472656 143.410156 C 24.503906 143.460938 24.570312 143.519531 24.621094 143.542969 C 24.707031 143.585938 24.816406 143.585938 28.03125 143.59375 L 31.351562 143.597656 L 31.171875 143.757812 C 30.628906 144.238281 30.042969 145.054688 29.730469 145.773438 C 28.9375 147.585938 29.035156 149.75 30 151.675781 C 30.796875 153.261719 32.105469 154.484375 33.6875 155.117188 C 35.035156 155.660156 36.734375 155.820312 38.316406 155.554688 C 39.871094 155.292969 41.128906 154.648438 42.222656 153.554688 C 42.59375 153.1875 42.847656 152.875 43.121094 152.460938 C 43.820312 151.402344 44.238281 150.207031 44.351562 148.960938 C 44.375 148.71875 44.378906 148.082031 44.359375 147.835938 Z M 41.613281 148.585938 C 41.554688 149.160156 41.40625 149.699219 41.152344 150.222656 C 40.863281 150.828125 40.464844 151.316406 39.894531 151.773438 C 39.230469 152.300781 38.464844 152.601562 37.496094 152.714844 C 37.144531 152.757812 36.347656 152.75 35.988281 152.703125 C 34.925781 152.566406 34.128906 152.199219 33.355469 151.480469 C 32.6875 150.863281 32.179688 149.875 31.988281 148.824219 C 31.945312 148.558594 31.949219 147.675781 32 147.398438 C 32.113281 146.800781 32.339844 146.191406 32.664062 145.65625 C 33.175781 144.804688 34.121094 144.0625 35.089844 143.753906 C 35.617188 143.585938 36.078125 143.519531 36.78125 143.519531 C 37.71875 143.519531 38.390625 143.65625 39.070312 143.988281 C 39.589844 144.242188 40.152344 144.667969 40.503906 145.074219 C 41.320312 146.011719 41.734375 147.320312 41.613281 148.585938 Z M 41.613281 148.585938 "/></g><g clip-rule="nonzero" clip-path="url(#f7a66b88b0)"><path style=" stroke:none;fill-rule:nonzero;fill:#ffffff;fill-opacity:1;" d="M 44.351562 163.507812 C 44.253906 162.472656 43.988281 161.5625 43.496094 160.601562 C 42.957031 159.539062 42.160156 158.621094 41.152344 157.90625 C 40.164062 157.199219 39.050781 156.796875 37.683594 156.65625 C 37.050781 156.59375 36.0625 156.617188 35.4375 156.707031 C 33.921875 156.929688 32.621094 157.582031 31.511719 158.660156 C 30.839844 159.316406 30.390625 159.945312 29.972656 160.8125 C 29.449219 161.898438 29.207031 162.945312 29.203125 164.128906 C 29.203125 165.035156 29.320312 165.761719 29.601562 166.578125 C 30.179688 168.269531 31.171875 169.550781 32.660156 170.53125 C 33.535156 171.105469 34.472656 171.441406 35.664062 171.597656 C 36.023438 171.648438 37.09375 171.667969 37.5 171.632812 C 39.113281 171.496094 40.363281 171.015625 41.550781 170.070312 C 42.433594 169.363281 43.066406 168.574219 43.570312 167.546875 C 43.964844 166.738281 44.203125 165.960938 44.316406 165.09375 C 44.363281 164.757812 44.382812 163.832031 44.351562 163.507812 Z M 41.570312 164.925781 C 41.449219 165.640625 41.15625 166.355469 40.757812 166.894531 C 40.566406 167.15625 40.15625 167.558594 39.867188 167.773438 C 39.1875 168.28125 38.523438 168.542969 37.621094 168.679688 C 37.234375 168.734375 36.304688 168.734375 35.917969 168.679688 C 34.828125 168.515625 34 168.109375 33.261719 167.375 C 32.894531 167.011719 32.710938 166.75 32.464844 166.257812 C 32.070312 165.460938 31.929688 164.832031 31.953125 163.992188 C 31.972656 163.503906 32.027344 163.171875 32.175781 162.722656 C 32.414062 162.011719 32.738281 161.453125 33.199219 160.980469 C 33.6875 160.472656 34.371094 160.035156 35 159.816406 C 36.226562 159.390625 37.917969 159.472656 39.019531 160.007812 C 39.976562 160.46875 40.753906 161.222656 41.164062 162.078125 C 41.382812 162.542969 41.539062 163.066406 41.589844 163.507812 C 41.601562 163.628906 41.617188 163.757812 41.625 163.792969 C 41.644531 163.960938 41.613281 164.660156 41.570312 164.925781 Z M 41.570312 164.925781 "/></g><g clip-rule="nonzero" clip-path="url(#bc909624a8)"><path style=" stroke:none;fill-rule:nonzero;fill:#ffffff;fill-opacity:1;" d="M 44.3125 122.449219 C 44.242188 121.21875 43.828125 120.125 43.089844 119.203125 C 42.800781 118.84375 42.375 118.433594 41.992188 118.152344 L 41.925781 118.101562 L 42.863281 118.097656 C 43.753906 118.097656 43.808594 118.097656 43.890625 118.054688 C 43.941406 118.027344 44.003906 117.976562 44.035156 117.933594 L 44.089844 117.859375 L 44.09375 116.625 L 44.101562 115.394531 L 44.050781 115.316406 C 43.980469 115.214844 43.898438 115.15625 43.785156 115.128906 C 43.648438 115.097656 29.886719 115.101562 29.773438 115.132812 C 29.640625 115.167969 29.554688 115.238281 29.507812 115.347656 C 29.46875 115.433594 29.460938 115.519531 29.460938 116.609375 C 29.460938 117.375 29.472656 117.796875 29.488281 117.839844 C 29.511719 117.910156 29.609375 118.019531 29.679688 118.058594 C 29.714844 118.082031 30.660156 118.089844 33.375 118.097656 L 37.023438 118.109375 L 37.316406 118.171875 C 38.339844 118.386719 39.136719 118.738281 39.777344 119.265625 C 39.96875 119.421875 40.351562 119.8125 40.507812 120.011719 C 40.992188 120.613281 41.292969 121.308594 41.421875 122.117188 C 41.460938 122.355469 41.46875 122.726562 41.445312 123.5 C 41.441406 123.644531 41.449219 123.667969 41.507812 123.746094 C 41.625 123.902344 41.601562 123.898438 42.855469 123.898438 C 43.648438 123.898438 44.003906 123.890625 44.039062 123.875 C 44.140625 123.820312 44.21875 123.726562 44.25 123.613281 C 44.3125 123.398438 44.339844 122.890625 44.3125 122.449219 Z M 44.3125 122.449219 "/></g><g clip-rule="nonzero" clip-path="url(#fa8557e78e)"><path style=" stroke:none;fill-rule:nonzero;fill:#ffffff;fill-opacity:1;" d="M 44.09375 135.707031 C 44.074219 135.589844 44.023438 135.511719 43.917969 135.449219 L 43.835938 135.394531 L 39.507812 135.382812 L 35.183594 135.371094 L 35.015625 135.320312 C 34.09375 135.035156 33.265625 134.457031 32.703125 133.710938 C 32.378906 133.28125 32.191406 132.894531 32.066406 132.414062 C 31.96875 132.035156 31.9375 131.738281 31.953125 131.265625 C 31.976562 130.566406 32.125 130.078125 32.472656 129.550781 C 32.617188 129.332031 33.070312 128.882812 33.292969 128.730469 C 33.734375 128.4375 34.238281 128.265625 34.972656 128.152344 C 35.109375 128.132812 36.292969 128.121094 39.507812 128.113281 L 43.859375 128.097656 L 43.933594 128.046875 C 43.972656 128.019531 44.027344 127.960938 44.050781 127.917969 C 44.101562 127.839844 44.101562 127.8125 44.101562 126.621094 L 44.101562 125.402344 L 44.046875 125.324219 C 44.019531 125.28125 43.960938 125.222656 43.914062 125.191406 L 43.835938 125.140625 L 39.292969 125.148438 C 34.757812 125.15625 34.746094 125.15625 34.398438 125.207031 C 33.214844 125.375 32.390625 125.679688 31.535156 126.25 C 30.738281 126.777344 30.214844 127.382812 29.773438 128.285156 C 29.328125 129.1875 29.148438 130.109375 29.210938 131.15625 C 29.261719 131.972656 29.417969 132.613281 29.726562 133.253906 C 30.121094 134.074219 30.617188 134.707031 31.328125 135.296875 L 31.429688 135.382812 L 30.613281 135.382812 C 29.871094 135.382812 29.789062 135.386719 29.703125 135.425781 C 29.597656 135.476562 29.523438 135.550781 29.488281 135.644531 C 29.472656 135.6875 29.460938 136.101562 29.460938 136.867188 C 29.460938 138.019531 29.460938 138.019531 29.515625 138.121094 C 29.574219 138.242188 29.652344 138.300781 29.777344 138.328125 C 29.910156 138.363281 43.695312 138.359375 43.808594 138.328125 C 43.910156 138.300781 44.039062 138.191406 44.074219 138.105469 C 44.101562 138.03125 44.121094 135.867188 44.09375 135.707031 Z M 44.09375 135.707031 "/></g><path style=" stroke:none;fill-rule:nonzero;fill:#ffffff;fill-opacity:1;" d="M 50.871094 245.746094 C 50.789062 245.175781 50.53125 244.691406 50.101562 244.347656 C 49.902344 244.183594 49.519531 243.992188 49.253906 243.925781 C 48.996094 243.855469 48.382812 243.855469 48.113281 243.921875 C 47.527344 244.066406 46.960938 244.515625 46.703125 245.039062 C 46.539062 245.371094 46.488281 245.605469 46.488281 246.074219 C 46.488281 246.511719 46.535156 246.753906 46.671875 247.058594 C 46.90625 247.566406 47.367188 247.976562 47.90625 248.15625 C 48.164062 248.242188 48.183594 248.246094 48.65625 248.246094 C 49.226562 248.246094 49.359375 248.21875 49.75 248.03125 C 50.292969 247.761719 50.703125 247.230469 50.832031 246.636719 C 50.878906 246.398438 50.902344 245.953125 50.871094 245.746094 Z M 50.871094 245.746094 "/><g clip-rule="nonzero" clip-path="url(#f7c3310810)"><path style=" stroke:none;fill-rule:nonzero;fill:#ffffff;fill-opacity:1;" d="M 49.902344 227.355469 C 49.894531 227.34375 45.449219 227.335938 40.023438 227.335938 L 30.167969 227.335938 L 30.167969 231.332031 L 34.765625 231.332031 L 35.359375 231.90625 C 35.683594 232.21875 35.953125 232.488281 35.953125 232.496094 C 35.953125 232.503906 34.648438 233.632812 33.058594 234.996094 L 30.167969 237.484375 L 30.167969 242.097656 L 30.320312 241.960938 C 30.410156 241.886719 32.300781 240.28125 34.523438 238.386719 L 38.570312 234.945312 L 39.050781 235.40625 C 39.3125 235.65625 40.683594 236.964844 42.09375 238.3125 L 44.664062 240.761719 L 44.671875 238.378906 L 44.675781 235.996094 L 44.46875 235.800781 C 44.351562 235.695312 43.222656 234.648438 41.960938 233.476562 L 39.664062 231.34375 L 44.792969 231.335938 L 49.921875 231.332031 L 49.921875 229.355469 C 49.921875 228.265625 49.914062 227.363281 49.902344 227.355469 Z M 49.902344 227.355469 "/></g><g clip-rule="nonzero" clip-path="url(#8f03fe2a98)"><path style=" stroke:none;fill-rule:nonzero;fill:#ffffff;fill-opacity:1;" d="M 44.960938 184.796875 C 44.8125 182.902344 44.035156 181.128906 42.789062 179.839844 C 41.585938 178.601562 40.128906 177.878906 38.441406 177.679688 C 38.03125 177.632812 36.835938 177.625 36.457031 177.664062 C 35.042969 177.824219 33.910156 178.285156 32.773438 179.160156 C 32.457031 179.40625 31.8125 180.046875 31.574219 180.355469 C 30.855469 181.289062 30.292969 182.519531 30.035156 183.726562 C 29.851562 184.578125 29.839844 185.734375 30.007812 186.714844 C 30.332031 188.644531 31.351562 190.191406 33.015625 191.285156 C 33.175781 191.386719 33.308594 191.460938 33.320312 191.449219 C 33.34375 191.425781 34.730469 188.402344 34.730469 188.382812 C 34.730469 188.371094 34.644531 188.273438 34.542969 188.164062 C 33.972656 187.550781 33.621094 186.871094 33.496094 186.144531 C 33.425781 185.722656 33.414062 185.125 33.464844 184.757812 C 33.589844 183.902344 34.054688 183.019531 34.648438 182.511719 C 35.050781 182.164062 35.578125 181.859375 36.023438 181.714844 C 36.894531 181.429688 37.96875 181.433594 38.847656 181.726562 C 39.546875 181.960938 40.300781 182.496094 40.710938 183.046875 C 41 183.4375 41.246094 183.992188 41.351562 184.5 C 41.421875 184.832031 41.421875 185.761719 41.355469 186.132812 C 41.21875 186.863281 40.875 187.496094 40.261719 188.148438 L 40.050781 188.375 L 40.089844 188.460938 C 40.113281 188.511719 40.425781 189.1875 40.792969 189.972656 C 41.152344 190.761719 41.460938 191.410156 41.46875 191.421875 C 41.492188 191.449219 41.90625 191.1875 42.285156 190.902344 C 42.648438 190.632812 43.191406 190.113281 43.445312 189.796875 C 44.238281 188.816406 44.746094 187.566406 44.90625 186.222656 C 44.945312 185.875 44.980469 185.039062 44.960938 184.796875 Z M 44.960938 184.796875 "/></g><g clip-rule="nonzero" clip-path="url(#3649b00a1e)"><path style=" stroke:none;fill-rule:nonzero;fill:#ffffff;fill-opacity:1;" d="M 44.957031 200.339844 C 44.871094 198.878906 44.390625 197.476562 43.558594 196.25 C 43.023438 195.457031 42.382812 194.835938 41.511719 194.253906 C 40.667969 193.691406 39.871094 193.375 38.863281 193.195312 C 37.808594 193.011719 36.585938 193.035156 35.53125 193.261719 C 34.035156 193.589844 32.472656 194.609375 31.507812 195.902344 C 31.234375 196.269531 31.035156 196.605469 30.789062 197.09375 C 30.15625 198.367188 29.894531 199.429688 29.894531 200.722656 C 29.894531 202.007812 30.148438 203.0625 30.765625 204.296875 C 31.203125 205.175781 31.695312 205.847656 32.332031 206.4375 C 33.578125 207.589844 34.902344 208.167969 36.632812 208.320312 C 37.089844 208.359375 38.105469 208.335938 38.535156 208.277344 C 39.566406 208.132812 40.542969 207.796875 41.308594 207.324219 C 41.929688 206.9375 42.671875 206.292969 43.160156 205.707031 C 43.40625 205.417969 43.816406 204.808594 44.003906 204.457031 C 44.683594 203.199219 45.039062 201.667969 44.957031 200.339844 Z M 41.339844 201.535156 C 41.085938 202.707031 40.425781 203.546875 39.335938 204.082031 C 38.773438 204.355469 38.320312 204.453125 37.554688 204.476562 C 36.773438 204.5 36.191406 204.40625 35.636719 204.164062 C 35.128906 203.945312 34.535156 203.476562 34.191406 203.019531 C 33.890625 202.617188 33.621094 202.011719 33.503906 201.460938 C 33.417969 201.0625 33.417969 200.378906 33.507812 199.972656 C 33.660156 199.257812 34.003906 198.589844 34.472656 198.105469 C 35.09375 197.457031 35.828125 197.097656 36.777344 196.984375 C 37.121094 196.941406 37.980469 196.964844 38.300781 197.023438 C 39.40625 197.230469 40.394531 197.886719 40.902344 198.753906 C 41.132812 199.152344 41.324219 199.714844 41.386719 200.179688 C 41.425781 200.480469 41.402344 201.25 41.339844 201.535156 Z M 41.339844 201.535156 "/></g><g clip-rule="nonzero" clip-path="url(#7bc7599930)"><path style=" stroke:none;fill-rule:nonzero;fill:#ffffff;fill-opacity:1;" d="M 44.945312 216.929688 C 44.84375 215.65625 44.378906 214.300781 43.660156 213.195312 C 43.078125 212.292969 42.238281 211.480469 41.277344 210.890625 C 40.15625 210.199219 38.882812 209.863281 37.367188 209.863281 C 35.777344 209.863281 34.535156 210.214844 33.363281 210.988281 C 32.164062 211.78125 31.425781 212.613281 30.789062 213.886719 C 30.226562 215.015625 29.953125 216.015625 29.898438 217.105469 C 29.832031 218.5625 30.105469 219.777344 30.808594 221.167969 C 31.195312 221.933594 31.605469 222.503906 32.175781 223.070312 C 33.324219 224.210938 34.609375 224.847656 36.230469 225.070312 C 36.675781 225.132812 37.605469 225.148438 38.078125 225.113281 C 39.945312 224.953125 41.339844 224.328125 42.621094 223.074219 C 43.722656 221.996094 44.472656 220.617188 44.808594 219.046875 C 44.9375 218.453125 44.996094 217.542969 44.945312 216.929688 Z M 41.375 218.113281 C 41.242188 218.988281 40.84375 219.75 40.242188 220.273438 C 39.667969 220.769531 39.039062 221.074219 38.300781 221.210938 C 37.980469 221.269531 37.121094 221.292969 36.777344 221.253906 C 35.835938 221.140625 35.078125 220.765625 34.457031 220.113281 C 33.988281 219.621094 33.660156 218.984375 33.503906 218.253906 C 33.417969 217.859375 33.417969 217.167969 33.503906 216.773438 C 33.621094 216.222656 33.890625 215.617188 34.191406 215.21875 C 34.640625 214.625 35.355469 214.125 36.050781 213.917969 C 36.492188 213.789062 36.695312 213.765625 37.382812 213.765625 C 38.285156 213.765625 38.710938 213.851562 39.335938 214.15625 C 40.023438 214.488281 40.570312 214.976562 40.902344 215.546875 C 41.132812 215.945312 41.328125 216.515625 41.386719 216.972656 C 41.425781 217.277344 41.417969 217.820312 41.375 218.113281 Z M 41.375 218.113281 "/></g><g clip-rule="nonzero" clip-path="url(#3558e56505)"><path style=" stroke:none;fill-rule:nonzero;fill:#ffffff;fill-opacity:1;" d="M 44.960938 257.296875 C 44.898438 256.433594 44.730469 255.710938 44.417969 254.933594 C 44.019531 253.9375 43.492188 253.132812 42.765625 252.402344 C 41.503906 251.140625 40.03125 250.449219 38.222656 250.273438 C 37.835938 250.230469 36.894531 250.234375 36.496094 250.273438 C 35.269531 250.394531 34.199219 250.773438 33.222656 251.425781 C 32.046875 252.21875 31.257812 253.152344 30.660156 254.46875 C 30.105469 255.683594 29.894531 256.664062 29.890625 258.003906 C 29.890625 258.855469 29.949219 259.457031 30.089844 260.144531 C 30.355469 261.453125 30.972656 262.644531 31.898438 263.636719 L 32.082031 263.839844 L 33.160156 262.734375 L 34.234375 261.636719 L 33.996094 261.164062 C 33.488281 260.140625 33.363281 259.726562 33.289062 258.816406 C 33.230469 258.066406 33.285156 257.289062 33.433594 256.746094 C 33.699219 255.769531 34.371094 254.914062 35.191406 254.496094 C 35.390625 254.394531 35.78125 254.246094 35.90625 254.226562 L 36.007812 254.207031 L 36.007812 264.667969 L 36.070312 264.683594 C 36.304688 264.742188 36.738281 264.757812 37.683594 264.746094 C 38.644531 264.734375 38.738281 264.730469 39.105469 264.664062 C 40.691406 264.375 41.855469 263.773438 42.953125 262.675781 C 43.871094 261.757812 44.507812 260.546875 44.808594 259.15625 C 44.921875 258.636719 44.992188 257.753906 44.960938 257.296875 Z M 41.511719 258.261719 C 41.332031 259.386719 40.609375 260.402344 39.703125 260.8125 C 39.5 260.902344 39.144531 261.019531 38.980469 261.046875 L 38.863281 261.066406 L 38.863281 254.234375 L 38.9375 254.253906 C 39.238281 254.324219 39.765625 254.582031 40.105469 254.824219 C 40.84375 255.351562 41.390625 256.246094 41.523438 257.136719 C 41.558594 257.402344 41.554688 257.984375 41.511719 258.261719 Z M 41.511719 258.261719 "/></g><g clip-rule="nonzero" clip-path="url(#8e6694fe45)"><path style=" stroke:none;fill-rule:nonzero;fill:#ffffff;fill-opacity:1;" d="M 37.421875 244.050781 L 30.167969 244.050781 L 30.167969 248.042969 L 44.675781 248.042969 L 44.675781 244.050781 Z M 37.421875 244.050781 "/></g></g></svg>