<svg xmlns="http://www.w3.org/2000/svg" xmlns:xlink="http://www.w3.org/1999/xlink" width="1080" zoomAndPan="magnify" viewBox="0 0 810 809.999993" height="1080" preserveAspectRatio="xMidYMid meet" version="1.2"><g id="ae961790b4"><path style=" stroke:none;fill-rule:nonzero;fill:#ffffff;fill-opacity:1;" d="M 404.839844 269.894531 C 330.484375 269.894531 269.734375 330.644531 269.734375 405 C 269.734375 479.355469 330.484375 540.105469 404.839844 540.105469 C 479.195312 540.105469 539.945312 479.355469 539.945312 405 C 539.945312 330.644531 479.195312 269.894531 404.839844 269.894531 Z M 810 405 C 810 348.996094 810.472656 293.625 807.308594 237.78125 C 804.144531 172.917969 789.433594 115.488281 741.972656 68.027344 C 694.511719 20.566406 637.082031 5.855469 572.21875 2.691406 C 516.214844 -0.472656 460.84375 0 405 0 C 348.996094 0 293.625 -0.472656 237.777344 2.691406 C 172.917969 5.855469 115.488281 20.566406 68.027344 68.027344 C 20.566406 115.488281 5.855469 172.917969 2.691406 237.78125 C -0.472656 293.785156 0 349.15625 0 405 C 0 460.84375 -0.472656 516.375 2.691406 572.222656 C 5.855469 637.085938 20.566406 694.511719 68.027344 741.972656 C 115.488281 789.433594 172.917969 804.144531 237.777344 807.308594 C 293.785156 810.472656 349.15625 810 405 810 C 461.003906 810 516.375 810.472656 572.21875 807.308594 C 637.082031 804.144531 694.667969 789.433594 741.972656 741.972656 C 789.433594 694.511719 804.144531 637.085938 807.308594 572.222656 C 810.632812 516.375 810 461.003906 810 405 Z M 404.839844 612.878906 C 289.828125 612.878906 196.960938 520.011719 196.960938 405 C 196.960938 289.988281 289.828125 197.121094 404.839844 197.121094 C 519.855469 197.121094 612.71875 289.988281 612.71875 405 C 612.71875 520.015625 519.855469 612.878906 404.839844 612.878906 Z M 621.261719 237.144531 C 594.367188 237.144531 572.695312 215.472656 572.695312 188.578125 C 572.695312 161.683594 594.367188 140.011719 621.261719 140.011719 C 648.15625 140.011719 669.832031 161.683594 669.832031 188.578125 C 669.832031 215.472656 648.15625 237.144531 621.261719 237.144531 Z M 621.261719 237.144531 "/></g></svg>