<svg xmlns="http://www.w3.org/2000/svg" xmlns:xlink="http://www.w3.org/1999/xlink" width="1524" zoomAndPan="magnify" viewBox="0 0 1143 157.5" height="210" preserveAspectRatio="xMidYMid meet" version="1.0"><defs><clipPath id="6d1d3cfba2"><path d="M 1.808594 1 L 1141.191406 1 L 1141.191406 155.753906 L 1.808594 155.753906 Z M 1.808594 1 " clip-rule="nonzero"/></clipPath></defs><g clip-path="url(#6d1d3cfba2)"><path fill="#ffffff" d="M 399.042969 1.015625 C 397.300781 1.015625 395.65625 1.160156 394.53125 1.464844 C 388.726562 3.082031 383.800781 8.1875 382.535156 13.851562 C 381.898438 16.558594 382.078125 21.59375 382.851562 24.089844 C 383.765625 27.117188 384.929688 28.945312 387.425781 31.300781 C 390.8125 34.535156 395.203125 36.0625 399.566406 36.0625 C 406.078125 36.0625 412.519531 32.660156 415.46875 26.445312 C 418.320312 20.5 417.6875 12.726562 413.921875 7.800781 C 412.234375 5.546875 408.816406 2.976562 406.21875 1.996094 C 404.597656 1.355469 401.707031 1.015625 399.042969 1.015625 Z M 34.882812 40.628906 L 45.542969 40.800781 C 53.496094 40.941406 56.839844 41.117188 58.8125 41.574219 C 62.679688 42.421875 66.234375 44.214844 68.449219 46.433594 C 71.832031 49.808594 73.238281 53.746094 73.238281 59.871094 C 73.238281 68.242188 70.351562 73.417969 64.015625 76.410156 C 59.652344 78.484375 57.753906 78.726562 45.71875 78.9375 L 34.882812 79.113281 Z M 182.835938 73.171875 C 185.472656 73.171875 188.226562 73.496094 190.234375 74.121094 C 196.390625 76.054688 200.859375 79.609375 203.21875 84.359375 C 203.925781 85.800781 204.59375 87.488281 204.695312 88.085938 L 204.941406 89.246094 L 182.882812 89.246094 C 170.777344 89.246094 160.851562 89.175781 160.851562 89.105469 C 160.851562 89.039062 161.207031 88.230469 161.59375 87.3125 C 164.585938 80.59375 170.53125 75.492188 177.460938 73.734375 C 178.941406 73.355469 180.855469 73.171875 182.835938 73.171875 Z M 665.863281 73.910156 C 668.660156 73.910156 671.722656 74.230469 673.8125 74.824219 C 680.710938 76.757812 686.796875 81.648438 689.757812 87.664062 C 691.9375 92.132812 692.355469 94.210938 692.355469 100.683594 C 692.355469 107.15625 691.9375 109.234375 689.757812 113.703125 C 686.726562 119.859375 680.5 124.75 673.148438 126.753906 C 671.546875 127.179688 668.960938 127.398438 666.390625 127.398438 C 663.867188 127.398438 661.363281 127.1875 659.8125 126.753906 C 654.777344 125.378906 650.554688 122.953125 647.25 119.578125 C 642.566406 114.789062 640.457031 108.914062 640.457031 100.683594 C 640.457031 92.449219 642.601562 86.46875 647.25 81.789062 C 651.011719 77.957031 656.011719 75.316406 661.394531 74.261719 C 662.617188 74.023438 664.195312 73.910156 665.863281 73.910156 Z M 956.863281 73.910156 C 959.660156 73.910156 962.71875 74.230469 964.816406 74.824219 C 971.710938 76.757812 977.800781 81.648438 980.753906 87.664062 C 982.933594 92.132812 983.359375 94.210938 983.359375 100.683594 C 983.359375 107.15625 982.933594 109.234375 980.753906 113.703125 C 977.730469 119.859375 971.5 124.75 964.144531 126.753906 C 962.546875 127.179688 959.960938 127.398438 957.386719 127.398438 C 954.867188 127.398438 952.359375 127.1875 950.8125 126.753906 C 945.777344 125.378906 941.554688 122.953125 938.25 119.578125 C 933.570312 114.789062 931.457031 108.914062 931.457031 100.683594 C 931.457031 92.449219 933.605469 86.46875 938.25 81.789062 C 942.015625 77.957031 947.007812 75.316406 952.394531 74.261719 C 953.617188 74.023438 955.191406 73.910156 956.863281 73.910156 Z M 1.808594 10.4375 L 1.808594 153.988281 L 34.882812 153.988281 L 34.882812 107.191406 L 43.75 107.261719 L 52.617188 107.367188 L 67.1875 130.660156 L 81.753906 153.988281 L 99.171875 153.988281 C 113 153.988281 116.515625 153.882812 116.308594 153.527344 C 116.167969 153.316406 108.53125 141.496094 99.347656 127.28125 C 90.199219 113.066406 82.597656 101.246094 82.492188 101 C 82.386719 100.71875 82.949219 100.226562 83.863281 99.765625 C 89 97.167969 95.578125 91.289062 98.714844 86.503906 C 102.089844 81.296875 104.308594 75.949219 105.503906 69.96875 C 106.453125 65.253906 106.347656 53.710938 105.328125 48.929688 C 103.078125 38.480469 99.3125 31.476562 92.308594 24.792969 C 83.898438 16.738281 73.027344 12.054688 59.6875 10.792969 C 57.40625 10.578125 44.738281 10.4375 28.832031 10.4375 Z M 262.085938 47.378906 C 249.207031 47.378906 245.621094 47.484375 245.726562 47.800781 C 245.832031 48.050781 256.175781 72.046875 268.738281 101.105469 L 291.574219 153.953125 L 306.707031 153.953125 L 321.835938 153.988281 L 344.707031 101.316406 C 357.304688 72.359375 367.683594 48.367188 367.828125 48.015625 C 368.074219 47.414062 367.4375 47.378906 351.464844 47.378906 L 334.855469 47.378906 L 320.992188 81.261719 C 313.390625 99.871094 307.058594 115.214844 306.917969 115.355469 C 306.917969 115.355469 306.917969 115.355469 306.914062 115.355469 C 306.753906 115.355469 300.335938 100.175781 292.632812 81.507812 L 278.554688 47.378906 Z M 383.238281 47.378906 L 383.238281 153.988281 L 415.609375 153.988281 L 415.609375 47.378906 Z M 796.335938 10.4375 L 796.335938 153.988281 L 829.414062 153.988281 L 829.414062 95.933594 L 877.269531 95.933594 L 877.199219 81.929688 L 877.09375 67.964844 L 853.269531 67.859375 L 829.414062 67.789062 L 829.414062 40.699219 L 887.472656 40.699219 L 887.472656 10.4375 Z M 1101.699219 45.328125 C 1100.683594 45.328125 1099.699219 45.378906 1098.773438 45.480469 C 1093.214844 46.148438 1089.519531 47.132812 1085.894531 48.964844 C 1079.347656 52.234375 1073.015625 58.179688 1069.882812 63.984375 L 1068.6875 66.203125 L 1068.6875 47.378906 L 1036.316406 47.378906 L 1036.316406 153.988281 L 1068.6875 153.988281 L 1068.6875 89.777344 L 1069.496094 87.839844 C 1071.394531 83.230469 1076.5 77.671875 1080.722656 75.632812 C 1083.460938 74.277344 1085.582031 73.800781 1088.914062 73.800781 C 1089.476562 73.800781 1090.074219 73.8125 1090.714844 73.839844 C 1098.207031 74.191406 1103.3125 77.25 1106.199219 83.089844 C 1108.484375 87.769531 1108.449219 87.277344 1108.449219 122.355469 L 1108.449219 153.988281 L 1141.171875 153.988281 L 1141.171875 121.160156 C 1141.171875 94.421875 1141.066406 87.558594 1140.644531 83.972656 C 1139.238281 71.90625 1135.722656 63.914062 1128.71875 56.597656 C 1125.511719 53.257812 1122.804688 51.21875 1119.179688 49.382812 C 1114.085938 46.851562 1107.324219 45.328125 1101.699219 45.328125 Z M 542.636719 19.9375 L 542.636719 47.378906 L 527.507812 47.378906 L 527.507812 74.121094 L 542.636719 74.121094 L 542.636719 100.789062 C 542.636719 116.9375 542.777344 128.621094 542.992188 130.414062 C 543.902344 137.976562 545.980469 142.9375 549.847656 146.808594 C 555.515625 152.507812 563.574219 155.039062 575.960938 155.039062 C 584.722656 155.039062 590.527344 154.09375 595.523438 151.804688 L 597.878906 150.710938 L 597.878906 124.539062 L 594.46875 125.414062 C 591.617188 126.15625 590.140625 126.296875 585.917969 126.332031 C 585.328125 126.335938 584.804688 126.339844 584.339844 126.339844 C 581.109375 126.339844 580.503906 126.207031 579.335938 125.59375 C 578.527344 125.132812 577.4375 124.257812 576.941406 123.585938 C 575.007812 121.054688 575.007812 120.910156 575.007812 96.601562 L 575.007812 74.121094 L 586.375 74.050781 L 597.707031 73.945312 L 597.808594 60.644531 L 597.878906 47.378906 L 575.007812 47.378906 L 574.9375 33.730469 L 574.832031 20.113281 L 558.753906 20.007812 Z M 472.429688 45.410156 C 470.714844 45.410156 469.121094 45.480469 467.863281 45.621094 C 457.695312 46.75 449.179688 50.511719 442.984375 56.597656 C 440.308594 59.273438 438.867188 61.277344 437.25 64.726562 C 435.210938 68.984375 434.789062 71.164062 434.789062 77.109375 C 434.789062 81.648438 434.894531 82.742188 435.597656 85.023438 C 438.199219 93.261719 443.796875 99.558594 453.367188 105.011719 C 457.660156 107.4375 461.917969 109.269531 471.382812 112.714844 C 475.816406 114.332031 480.320312 116.164062 481.375 116.796875 C 484.46875 118.625 485.84375 121.476562 484.964844 124.1875 C 484.398438 125.804688 481.871094 128.125 479.371094 129.285156 C 477.929688 129.960938 475.890625 130.296875 473.742188 130.296875 C 471.738281 130.296875 469.644531 130.003906 467.863281 129.425781 C 463.605469 128.019531 459.59375 124.433594 457.09375 119.753906 C 456.53125 118.6875 455.902344 117.84375 455.65625 117.84375 C 455.640625 117.84375 455.628906 117.84375 455.617188 117.851562 C 455.371094 117.921875 449.671875 119.71875 442.949219 121.828125 L 430.707031 125.664062 L 430.917969 126.894531 C 431.410156 129.460938 433.976562 135.339844 435.980469 138.363281 C 440.59375 145.332031 447.597656 150.5 456.535156 153.457031 C 462.09375 155.300781 465.933594 155.851562 473.152344 155.851562 C 473.378906 155.851562 473.609375 155.851562 473.84375 155.851562 C 485.878906 155.816406 494.539062 153.527344 502.628906 148.25 C 512.304688 141.953125 516.773438 133.683594 516.738281 122.144531 C 516.738281 114.367188 515.085938 109.164062 511.074219 104.199219 C 505.898438 97.832031 499.460938 94.527344 476.765625 86.503906 C 470.113281 84.148438 467.933594 82.84375 466.703125 80.453125 C 465.644531 78.414062 465.75 75.84375 466.984375 74.121094 C 468.347656 72.210938 471.53125 71.050781 474.65625 71.050781 C 475.964844 71.050781 477.265625 71.253906 478.417969 71.691406 C 481.128906 72.710938 484.050781 75.5625 485.492188 78.585938 C 486.164062 79.992188 486.640625 80.632812 486.984375 80.632812 C 487.003906 80.632812 487.023438 80.628906 487.039062 80.628906 C 487.320312 80.558594 493.480469 78.9375 500.695312 77.074219 C 513.046875 73.839844 513.78125 73.59375 513.574219 72.921875 C 513.007812 70.953125 509.734375 64.796875 507.765625 62.050781 C 501.855469 53.710938 493.445312 48.332031 483.242188 46.289062 C 480.535156 45.734375 476.1875 45.410156 472.429688 45.410156 Z M 180.796875 45.386719 C 179.75 45.386719 178.867188 45.417969 178.273438 45.480469 C 155.011719 47.980469 135.660156 64.160156 130.066406 85.765625 C 127.882812 94.175781 127.636719 104.800781 129.394531 113.523438 C 132.035156 126.402344 140.234375 138.539062 151.179688 145.71875 C 159.691406 151.3125 169.683594 154.828125 179.714844 155.78125 C 181.328125 155.933594 183.082031 156.003906 184.921875 156.003906 C 192.875 156.003906 202.355469 154.648438 208.21875 152.507812 C 214.796875 150.148438 221.691406 146.101562 226.582031 141.738281 L 228.484375 140.085938 L 219.617188 131.503906 L 210.75 122.917969 L 209.128906 123.445312 C 208.21875 123.761719 206.070312 124.609375 204.382812 125.308594 C 198.820312 127.632812 195.230469 128.371094 188.476562 128.550781 C 187.484375 128.582031 186.566406 128.601562 185.707031 128.601562 C 181.175781 128.601562 178.3125 128.117188 175 126.960938 C 169.296875 124.921875 164.757812 120.945312 162.15625 115.636719 L 160.5 112.292969 L 197.34375 112.121094 L 234.21875 111.941406 L 234.5 110.179688 C 235.0625 106.945312 234.921875 93.644531 234.253906 89.597656 C 232.53125 78.554688 228.625 70.039062 221.65625 62.15625 C 214.515625 54.03125 203.675781 48.226562 191.820312 46.113281 C 189.496094 45.707031 184.261719 45.386719 180.796875 45.386719 Z M 660.691406 45.339844 C 659.03125 45.339844 657.464844 45.453125 655.410156 45.691406 C 651.71875 46.113281 646.507812 47.414062 642.460938 49 C 626.136719 55.296875 614.066406 69.6875 610.546875 87.101562 C 608.71875 96.179688 608.71875 105.1875 610.546875 114.265625 C 612.550781 124.1875 617.339844 133.230469 624.273438 140.296875 C 634.097656 150.261719 648.210938 156.027344 661.550781 156.027344 C 665.214844 156.027344 668.824219 155.589844 672.265625 154.6875 C 678.496094 153.035156 686.796875 147.617188 689.757812 143.253906 C 690.273438 142.476562 690.761719 142.085938 691.199219 142.085938 C 691.234375 142.085938 691.269531 142.089844 691.304688 142.09375 C 691.972656 142.199219 692.007812 142.515625 692.113281 148.074219 L 692.183594 153.988281 L 724.554688 153.988281 L 724.554688 47.378906 L 692.183594 47.378906 L 692.113281 53.257812 C 692.007812 59.097656 692.007812 59.167969 691.234375 59.273438 C 691.136719 59.285156 691.046875 59.292969 690.964844 59.292969 C 690.644531 59.292969 690.421875 59.191406 690.421875 59.027344 C 690.421875 58.320312 685.992188 53.925781 683.210938 51.847656 C 678.070312 48.015625 673.253906 46.253906 665.96875 45.621094 C 663.828125 45.4375 662.21875 45.339844 660.691406 45.339844 Z M 951.691406 45.339844 C 950.03125 45.339844 948.464844 45.453125 946.414062 45.691406 C 942.714844 46.113281 937.507812 47.414062 933.464844 49 C 917.136719 55.296875 905.066406 69.6875 901.546875 87.101562 C 899.71875 96.179688 899.71875 105.1875 901.546875 114.265625 C 903.554688 124.1875 908.339844 133.230469 915.269531 140.296875 C 925.097656 150.261719 939.210938 156.027344 952.550781 156.027344 C 956.21875 156.027344 959.824219 155.589844 963.269531 154.6875 C 969.496094 153.035156 977.800781 147.617188 980.753906 143.253906 C 981.273438 142.476562 981.765625 142.085938 982.195312 142.085938 C 982.230469 142.085938 982.269531 142.089844 982.304688 142.09375 C 982.96875 142.199219 983.003906 142.515625 983.109375 148.074219 L 983.179688 153.988281 L 1015.554688 153.988281 L 1015.554688 47.378906 L 983.179688 47.378906 L 983.109375 53.257812 C 983.003906 59.097656 983.003906 59.167969 982.234375 59.273438 C 982.136719 59.285156 982.046875 59.292969 981.960938 59.292969 C 981.644531 59.292969 981.421875 59.191406 981.421875 59.027344 C 981.421875 58.320312 976.988281 53.925781 974.207031 51.847656 C 969.074219 48.015625 964.25 46.253906 956.96875 45.621094 C 954.828125 45.4375 953.21875 45.339844 951.691406 45.339844 Z M 951.691406 45.339844 " fill-opacity="1" fill-rule="nonzero"/></g></svg>