<svg xmlns="http://www.w3.org/2000/svg" xmlns:xlink="http://www.w3.org/1999/xlink" width="2048" zoomAndPan="magnify" viewBox="0 0 1536 265.499997" height="354" preserveAspectRatio="xMidYMid meet" version="1.2"><defs><clipPath id="5e99da034f"><path d="M 1353 39 L 1534.554688 39 L 1534.554688 235 L 1353 235 Z M 1353 39 "/></clipPath><clipPath id="86aa601777"><path d="M 1.445312 44 L 272 44 L 272 244 L 1.445312 244 Z M 1.445312 44 "/></clipPath></defs><g id="3d64c9a812"><path style=" stroke:none;fill-rule:nonzero;fill:#ffffff;fill-opacity:1;" d="M 605.28125 35.351562 C 595.609375 36.851562 590.660156 38.164062 585.898438 40.601562 C 582.824219 42.140625 576.527344 46.9375 573.191406 50.199219 C 567.078125 56.273438 562.316406 64.371094 561.378906 70.332031 C 559.242188 83.90625 561.230469 94.667969 567.902344 105.875 C 571.765625 112.324219 578.777344 120.347656 586.761719 127.359375 C 594.859375 134.445312 596.324219 135.53125 602.285156 139.246094 C 616.941406 148.355469 622.15625 152.066406 627.328125 157.015625 C 633.703125 163.128906 636.328125 168.714844 636.328125 176.175781 C 636.328125 180.488281 635.578125 183.523438 633.550781 187.421875 C 629.914062 194.394531 623.167969 199.195312 615.59375 200.132812 C 605.394531 201.445312 598.421875 199.457031 591 193.234375 C 585.449219 188.585938 580.914062 182.359375 576.375 173.398438 C 574.050781 168.75 573.601562 168.113281 572.738281 168 C 571.953125 167.890625 559.804688 170.738281 542.035156 175.125 C 541.058594 175.351562 540.160156 175.800781 540.082031 176.0625 C 539.894531 176.511719 540.046875 177.597656 540.796875 181.046875 C 541.019531 182.171875 543.046875 188.847656 543.871094 191.171875 C 547.769531 202.308594 562.28125 220.453125 573.039062 227.726562 C 577.164062 230.539062 583.273438 233.6875 587.285156 235.148438 C 590.921875 236.425781 597.820312 237.960938 602.246094 238.414062 C 605.996094 238.785156 614.054688 238.898438 617.09375 238.5625 C 629.804688 237.289062 648.210938 229.226562 656.871094 221.242188 C 659.984375 218.355469 665.082031 212.503906 667.820312 208.679688 C 669.921875 205.757812 674.15625 197.507812 675.804688 193.195312 C 677.15625 189.632812 678.355469 178.988281 678.054688 173.363281 C 677.941406 170.886719 677.570312 167.777344 677.304688 166.425781 C 676.332031 161.964844 673.746094 153.378906 672.65625 151.167969 C 670.632812 146.96875 667.183594 141.082031 665.121094 138.308594 C 662.421875 134.632812 654.171875 126.199219 649.824219 122.710938 C 645.925781 119.5625 636.027344 113.523438 626.765625 108.652344 C 618.59375 104.375 612.929688 100.441406 606.519531 94.703125 C 604.722656 93.089844 602.769531 90.992188 602.207031 90.054688 C 599.132812 84.804688 600.183594 78.167969 604.722656 74.082031 C 606.21875 72.734375 607.34375 72.097656 609.707031 71.347656 C 614.804688 69.734375 624.066406 69.695312 631.265625 71.269531 C 632.953125 71.644531 633.328125 71.609375 633.816406 71.121094 C 634.191406 70.746094 635.425781 65.273438 637.300781 55.410156 C 640.902344 36.742188 640.824219 37.265625 640.226562 36.777344 C 639.476562 36.179688 632.089844 35.242188 624.402344 34.828125 C 614.582031 34.304688 611.769531 34.378906 605.28125 35.351562 Z M 605.28125 35.351562 "/><path style=" stroke:none;fill-rule:nonzero;fill:#ffffff;fill-opacity:1;" d="M 274.414062 35.617188 C 274.414062 36.253906 280.335938 53.425781 285.472656 67.632812 C 286.222656 69.695312 288.847656 77.195312 291.320312 84.320312 C 303.394531 118.960938 308.117188 132.421875 310.78125 139.808594 C 314.265625 149.332031 322.664062 173.324219 326.640625 184.984375 C 330.539062 196.347656 331.738281 199.796875 332.339844 201.105469 C 332.601562 201.707031 333.164062 203.320312 333.574219 204.667969 C 334.476562 207.445312 335.710938 211.042969 340.136719 223.414062 L 343.285156 232.226562 L 360.796875 232.339844 L 378.304688 232.414062 L 379.054688 230.652344 C 379.464844 229.640625 380.667969 226.566406 381.679688 223.789062 C 382.691406 221.015625 383.929688 217.714844 384.453125 216.480469 C 386.253906 211.980469 410.023438 151.65625 417.257812 133.246094 C 418.234375 130.773438 421.683594 122 424.90625 113.75 C 428.167969 105.5 431.394531 97.214844 432.066406 95.378906 C 432.742188 93.503906 435.066406 87.542969 437.242188 82.070312 C 452.390625 43.828125 455.125 36.816406 455.125 35.953125 C 455.125 35.203125 454.902344 35.203125 435.03125 35.203125 L 414.972656 35.203125 L 413.996094 37.339844 C 413.472656 38.539062 411.449219 43.5625 409.496094 48.511719 C 407.546875 53.460938 405.75 58 405.449219 58.636719 C 405.1875 59.234375 404.773438 60.25 404.550781 60.886719 C 404.0625 62.234375 391.800781 93.503906 377.816406 128.933594 C 372.269531 143.070312 367.207031 155.964844 366.605469 157.617188 C 366.007812 159.265625 364.882812 162.300781 364.058594 164.363281 L 362.59375 168.113281 L 360.683594 161.925781 C 354.570312 142.46875 344.75 111.726562 339.125 94.253906 C 336.761719 87.019531 331.625 70.933594 327.652344 58.449219 C 323.679688 45.964844 320.265625 35.539062 320.078125 35.277344 C 319.777344 34.941406 314.71875 34.828125 297.058594 34.828125 C 274.449219 34.828125 274.414062 34.828125 274.414062 35.617188 Z M 274.414062 35.617188 "/><path style=" stroke:none;fill-rule:nonzero;fill:#ffffff;fill-opacity:1;" d="M 472.898438 41.839844 C 473.011719 43.863281 473.199219 52.1875 473.308594 60.324219 C 473.421875 68.460938 474.023438 103.628906 474.660156 138.496094 C 475.257812 173.324219 475.859375 209.355469 475.972656 218.542969 C 476.085938 229.113281 476.308594 235.75 476.570312 236.613281 L 476.984375 238.039062 L 516.613281 238.039062 L 516.613281 138.71875 C 516.613281 84.09375 516.5 39.140625 516.386719 38.800781 C 516.164062 38.277344 513.914062 38.203125 494.417969 38.203125 L 472.710938 38.203125 Z M 472.898438 41.839844 "/><g clip-rule="nonzero" clip-path="url(#5e99da034f)"><path style=" stroke:none;fill-rule:nonzero;fill:#ffffff;fill-opacity:1;" d="M 1354.007812 39.777344 C 1353.894531 40.039062 1353.855469 83.945312 1353.894531 137.371094 L 1354.007812 234.476562 L 1375.113281 234.589844 L 1396.222656 234.664062 L 1395.960938 167.515625 C 1395.773438 118.660156 1395.808594 100.363281 1396.109375 100.476562 C 1396.410156 100.589844 1408.519531 116.335938 1411.746094 120.835938 C 1412.945312 122.523438 1425.953125 139.730469 1442.675781 161.742188 C 1459.996094 184.574219 1487.441406 220.828125 1493.550781 229.039062 L 1497.601562 234.476562 L 1516.085938 234.589844 L 1534.53125 234.664062 L 1534.53125 39.328125 L 1517.585938 39.402344 L 1500.601562 39.515625 L 1500.488281 105.425781 C 1500.449219 147.832031 1500.265625 171.300781 1500.039062 171.226562 C 1499.851562 171.152344 1496.402344 166.726562 1492.351562 161.367188 C 1480.054688 144.980469 1469.632812 131.144531 1453.546875 110 C 1423.929688 71.046875 1409.496094 51.925781 1404.097656 44.613281 L 1400.234375 39.328125 L 1377.175781 39.328125 C 1359.105469 39.328125 1354.117188 39.441406 1354.007812 39.777344 Z M 1354.007812 39.777344 "/></g><path style=" stroke:none;fill-rule:nonzero;fill:#ffffff;fill-opacity:1;" d="M 667.933594 40.300781 C 667.519531 41.351562 667.707031 73.859375 668.121094 74.609375 C 668.457031 75.28125 669.433594 75.320312 690.765625 75.320312 L 713.074219 75.320312 L 713.074219 154.730469 C 713.074219 215.992188 713.1875 234.25 713.523438 234.589844 C 713.859375 234.925781 718.324219 235.039062 731.296875 235.039062 C 746.742188 235.039062 748.652344 234.960938 748.839844 234.4375 C 748.953125 234.101562 749.066406 198.183594 749.066406 154.578125 L 749.066406 75.320312 L 841.035156 75.246094 L 932.964844 75.132812 L 932.964844 39.890625 L 800.582031 39.777344 C 678.582031 39.703125 668.15625 39.738281 667.933594 40.300781 Z M 667.933594 40.300781 "/><path style=" stroke:none;fill-rule:nonzero;fill:#ffffff;fill-opacity:1;" d="M 1071.949219 40.152344 C 1071.238281 40.863281 1071.3125 236.273438 1072.027344 236.875 C 1072.363281 237.175781 1077.761719 237.25 1091.410156 237.210938 L 1110.304688 237.101562 L 1110.566406 235.039062 C 1110.679688 233.914062 1110.792969 220.265625 1110.832031 204.78125 L 1110.867188 176.550781 L 1143.222656 176.476562 L 1175.542969 176.363281 L 1175.542969 138.871094 L 1143.222656 138.757812 L 1110.867188 138.683594 L 1110.867188 73.820312 L 1218.472656 73.820312 C 1324.460938 73.820312 1326.035156 73.820312 1326.449219 73.109375 C 1326.863281 72.320312 1327.011719 42.066406 1326.597656 40.527344 L 1326.375 39.703125 L 1199.386719 39.703125 C 1101.121094 39.703125 1072.289062 39.816406 1071.949219 40.152344 Z M 1071.949219 40.152344 "/><g clip-rule="nonzero" clip-path="url(#86aa601777)"><path style=" stroke:none;fill-rule:nonzero;fill:#ffffff;fill-opacity:1;" d="M 1.65625 45.027344 C 1.542969 45.515625 1.503906 88.742188 1.542969 141.121094 L 1.65625 236.351562 L 37.273438 236.351562 L 37.460938 202.980469 L 37.648438 169.613281 L 40.648438 169.3125 C 46.121094 168.789062 51.332031 169.6875 58.457031 172.5 C 71.167969 177.488281 81.890625 185.546875 92.988281 198.484375 C 96.960938 203.09375 111.058594 217.117188 114.132812 219.515625 C 118.59375 222.964844 123.917969 226.339844 136.851562 233.875 C 140.152344 235.789062 147.277344 239.011719 148.925781 239.3125 C 149.1875 239.386719 150.800781 239.835938 152.5625 240.398438 C 158.261719 242.160156 160.285156 242.535156 167.632812 243.285156 C 175.246094 244.074219 181.621094 244.074219 191.367188 243.25 C 198.941406 242.609375 215.738281 240.472656 217.988281 239.835938 C 218.8125 239.613281 220.011719 239.386719 220.609375 239.3125 C 222.484375 239.125 234.519531 235.863281 240.070312 234.0625 C 242.957031 233.125 247.417969 231.4375 250.003906 230.3125 C 255.667969 227.800781 260.765625 225.628906 266.5 223.152344 C 268.863281 222.140625 270.964844 221.015625 271.1875 220.714844 C 271.75 219.816406 257.917969 190.273438 256.867188 190.121094 C 256.453125 190.046875 254.804688 190.683594 253.230469 191.507812 C 250.082031 193.160156 246.257812 194.808594 239.582031 197.394531 C 235.308594 199.046875 213.824219 205.382812 209.925781 206.132812 C 206.664062 206.769531 200.964844 207.929688 198.304688 208.566406 C 190.054688 210.480469 173.183594 210.332031 162.6875 208.269531 C 159.875 207.742188 152.523438 205.304688 148.964844 203.730469 C 143.300781 201.21875 136.664062 195.183594 123.617188 180.675781 C 118.445312 174.9375 107.835938 164.363281 97.859375 155.066406 C 96.136719 153.453125 94.785156 152.105469 94.863281 152.03125 C 94.9375 151.992188 96.175781 151.128906 97.597656 150.117188 C 103.523438 145.957031 109.222656 140.070312 113.15625 133.996094 C 114.996094 131.144531 117.65625 125.109375 118.480469 121.8125 C 118.855469 120.347656 119.007812 117.425781 118.96875 111.875 C 118.96875 104.789062 118.855469 103.550781 117.957031 99.203125 C 115.78125 89.078125 110.910156 79.445312 103.671875 71.121094 C 101.273438 68.347656 97.113281 64.484375 94.675781 62.761719 C 94.074219 62.347656 93.4375 61.824219 93.175781 61.636719 C 91.523438 60.136719 84.703125 56.050781 80.015625 53.726562 C 70.753906 49.152344 58.871094 45.738281 48.257812 44.613281 C 46.160156 44.351562 35.625 44.203125 23.25 44.203125 L 1.84375 44.203125 Z M 50.394531 76.070312 C 61.71875 77.34375 72.140625 82.894531 77.277344 90.316406 C 79.601562 93.652344 79.941406 94.402344 81.328125 99.128906 C 82.414062 102.878906 82.527344 103.550781 82.300781 106.625 C 81.925781 112.023438 81.816406 112.851562 81.140625 115.8125 C 80.015625 120.609375 78.027344 123.949219 73.003906 129.421875 C 65.503906 137.558594 57.96875 140.746094 46.085938 140.746094 C 42.898438 140.746094 39.636719 140.59375 38.886719 140.445312 L 37.460938 140.144531 L 37.460938 76.484375 L 39.074219 76.296875 C 39.933594 76.183594 41.058594 76.03125 41.585938 75.921875 C 43.496094 75.65625 47.097656 75.695312 50.394531 76.070312 Z M 50.394531 76.070312 "/></g><path style=" stroke:none;fill-rule:nonzero;fill:#ffffff;fill-opacity:1;" d="M 200.367188 44.464844 C 190.953125 45.664062 182.105469 48.8125 174.121094 53.761719 C 165.796875 58.972656 159.796875 64.597656 153.875 72.957031 C 138.617188 94.402344 137.714844 125.558594 151.738281 148.054688 C 154.175781 151.992188 158.785156 158.066406 160.8125 160.054688 C 164.035156 163.203125 170.445312 167.476562 175.808594 170.027344 C 186.605469 175.199219 196.765625 177.410156 209.738281 177.449219 C 224.660156 177.449219 236.65625 174.414062 248.355469 167.664062 C 253.640625 164.589844 254.617188 163.800781 254.429688 162.902344 C 254.054688 161.367188 241.90625 135.90625 241.34375 135.53125 C 240.933594 135.269531 239.882812 135.757812 237.445312 137.257812 C 232.796875 140.144531 230.808594 141.082031 226.347656 142.617188 C 220.199219 144.757812 215.773438 145.507812 209.738281 145.542969 C 203.964844 145.582031 200.554688 145.019531 195.042969 143.144531 C 187.316406 140.558594 181.058594 135.269531 178.433594 129.121094 C 177.570312 127.058594 176.558594 122.75 176.558594 121.023438 L 176.558594 119.898438 L 220.984375 120.011719 L 265.378906 120.125 L 265.789062 119.261719 C 266.316406 118.097656 266.238281 114.164062 265.601562 106.8125 C 264.628906 95.527344 263.726562 90.28125 261.777344 84.167969 C 257.992188 72.320312 251.765625 63.433594 242.355469 56.386719 C 233.546875 49.75 225.410156 46.265625 215.4375 44.800781 C 211.875 44.238281 203.363281 44.089844 200.367188 44.464844 Z M 211.800781 76.59375 C 217.011719 77.71875 221.023438 79.894531 225.296875 84.019531 C 227.699219 86.304688 230.171875 89.980469 230.171875 91.21875 C 230.171875 91.78125 228.148438 91.816406 206.925781 91.816406 C 194.140625 91.816406 183.679688 91.742188 183.679688 91.628906 C 183.679688 91.105469 185.445312 88.03125 186.90625 85.96875 C 190.84375 80.417969 199.429688 76.183594 206.925781 76.109375 C 208.277344 76.109375 210.449219 76.332031 211.800781 76.59375 Z M 211.800781 76.59375 "/><path style=" stroke:none;fill-rule:nonzero;fill:#ffffff;fill-opacity:1;" d="M 885.050781 100.328125 C 884.902344 100.441406 884.789062 104.265625 884.789062 108.800781 C 884.789062 116.785156 884.75 117.011719 884.078125 116.523438 C 878.753906 112.585938 876.878906 111.386719 873.355469 109.664062 C 867.917969 107 863.71875 105.5 858.917969 104.601562 C 851.308594 103.175781 845.347656 103.214844 837.585938 104.789062 C 831.550781 105.988281 822.738281 109.925781 817.113281 113.898438 C 813.441406 116.488281 806.542969 123.273438 803.730469 127.058594 C 798.21875 134.484375 793.605469 145.242188 791.734375 155.105469 C 791.019531 158.742188 790.871094 160.765625 790.871094 167.175781 C 790.90625 175.164062 791.171875 177.636719 792.78125 184.125 C 795.519531 195.183594 801.179688 205.53125 808.714844 213.480469 C 820.414062 225.703125 833.386719 231.402344 849.546875 231.402344 C 856.292969 231.402344 860.945312 230.6875 866.640625 228.851562 C 872.417969 226.941406 879.726562 223.039062 883.289062 219.929688 L 884.601562 218.765625 L 884.714844 227.089844 L 884.789062 235.414062 L 901.808594 235.414062 C 916.996094 235.414062 918.871094 235.335938 919.058594 234.8125 C 919.167969 234.476562 919.28125 204.332031 919.28125 167.777344 C 919.28125 103.851562 919.246094 101.265625 918.605469 100.703125 C 917.96875 100.140625 916.246094 100.066406 901.585938 100.066406 C 892.625 100.066406 885.164062 100.179688 885.050781 100.328125 Z M 861.09375 136.957031 C 864.691406 137.78125 868.554688 139.28125 871.589844 141.007812 C 875.714844 143.292969 880.664062 148.355469 883.027344 152.59375 L 884.828125 155.855469 L 884.714844 169.6875 L 884.601562 183.484375 L 882.765625 186.449219 C 877.253906 195.296875 868.328125 200.917969 857.980469 202.082031 C 845.984375 203.394531 832.824219 196.945312 826.863281 186.824219 C 823.1875 180.636719 821.765625 175.761719 821.765625 169.613281 C 821.765625 167.25 821.988281 164.328125 822.328125 162.753906 C 824.726562 151.730469 833.238281 141.945312 843.546875 138.421875 C 847.144531 137.21875 847.820312 137.03125 851.234375 136.433594 C 853.519531 136.019531 858.246094 136.28125 861.09375 136.957031 Z M 861.09375 136.957031 "/><path style=" stroke:none;fill-rule:nonzero;fill:#ffffff;fill-opacity:1;" d="M 1289.21875 100.328125 C 1289.070312 100.441406 1288.957031 104.265625 1288.957031 108.761719 C 1288.957031 113.261719 1288.808594 116.9375 1288.621094 116.9375 C 1288.433594 116.9375 1288.09375 116.710938 1287.832031 116.410156 C 1286.933594 115.289062 1280.785156 111.351562 1277.148438 109.511719 C 1269.011719 105.464844 1261.738281 103.664062 1253.152344 103.664062 C 1243.929688 103.664062 1236.167969 105.539062 1228.21875 109.664062 C 1223.421875 112.136719 1215.734375 117.800781 1212.847656 120.949219 C 1204.074219 130.507812 1198.300781 142.019531 1195.902344 154.730469 C 1195.1875 158.367188 1195.039062 160.429688 1195.039062 166.988281 C 1195.039062 175.425781 1195.300781 177.636719 1197.136719 184.722656 C 1200.136719 196.53125 1205.609375 206.09375 1214.308594 214.792969 C 1219.746094 220.226562 1223.308594 222.890625 1229.15625 225.777344 C 1237.179688 229.789062 1244.265625 231.402344 1253.714844 231.402344 C 1263.386719 231.402344 1270.621094 229.675781 1278.871094 225.402344 C 1281.046875 224.277344 1284.15625 222.367188 1285.808594 221.128906 L 1288.769531 218.917969 L 1288.882812 227.164062 L 1288.957031 235.414062 L 1305.976562 235.414062 C 1321.164062 235.414062 1323.039062 235.335938 1323.226562 234.8125 C 1323.335938 234.476562 1323.449219 204.332031 1323.449219 167.777344 C 1323.449219 103.851562 1323.414062 101.265625 1322.773438 100.703125 C 1322.136719 100.140625 1320.414062 100.066406 1305.753906 100.066406 C 1296.792969 100.066406 1289.332031 100.179688 1289.21875 100.328125 Z M 1263.273438 136.582031 C 1265.785156 136.957031 1270.546875 138.457031 1273.023438 139.621094 C 1278.535156 142.246094 1284.082031 147.378906 1287.308594 152.929688 L 1288.992188 155.742188 L 1288.882812 169.613281 L 1288.769531 183.484375 L 1286.933594 186.449219 C 1278.683594 199.683594 1263.011719 205.34375 1248.203125 200.46875 C 1235.003906 196.121094 1225.933594 183.484375 1225.933594 169.425781 C 1225.894531 162.566406 1227.582031 156.941406 1231.40625 151.203125 C 1235.53125 145.019531 1241.566406 140.445312 1248.652344 138.121094 C 1254.613281 136.171875 1258.0625 135.796875 1263.273438 136.582031 Z M 1263.273438 136.582031 "/></g></svg>