<svg xmlns="http://www.w3.org/2000/svg" xmlns:xlink="http://www.w3.org/1999/xlink" width="1080" zoomAndPan="magnify" viewBox="0 0 810 809.999993" height="1080" preserveAspectRatio="xMidYMid meet" version="1.2"><g id="3eca283421"><path style=" stroke:none;fill-rule:nonzero;fill:#ffffff;fill-opacity:1;" d="M 421.605469 26.046875 C 463.042969 25.414062 504.175781 25.742188 545.28125 25.414062 C 546.648438 76.824219 567.507812 123.09375 600.691406 157.367188 L 600.640625 157.316406 C 636.355469 189.488281 682.828125 210.347656 734.0625 213.890625 L 734.769531 213.941406 L 734.769531 341.414062 C 686.375 340.199219 640.863281 329.039062 599.832031 309.851562 L 601.90625 310.710938 C 582.0625 301.167969 565.277344 291.371094 549.332031 280.4375 L 550.648438 281.296875 C 550.34375 373.664062 550.953125 466.027344 550.015625 558.066406 C 547.40625 604.96875 531.816406 647.746094 506.808594 683.460938 L 507.3125 682.679688 C 465.496094 742.566406 397.761719 781.878906 320.734375 784.207031 L 320.378906 784.207031 C 317.265625 784.359375 313.597656 784.433594 309.902344 784.433594 C 266.109375 784.433594 225.179688 772.234375 190.300781 751.046875 L 191.3125 751.628906 C 127.828125 713.433594 84.039062 648.074219 75.9375 572.0625 L 75.835938 571.023438 C 75.203125 555.203125 74.898438 539.382812 75.53125 523.894531 C 87.9375 402.925781 189.285156 309.34375 312.484375 309.34375 C 326.328125 309.34375 339.894531 310.535156 353.085938 312.785156 L 351.667969 312.585938 C 352.300781 359.386719 350.402344 406.214844 350.402344 453.019531 C 339.695312 449.144531 327.339844 446.890625 314.457031 446.890625 C 267.171875 446.890625 226.953125 477.117188 212.066406 519.3125 L 211.839844 520.070312 C 208.472656 530.878906 206.523438 543.308594 206.523438 556.167969 C 206.523438 561.378906 206.855469 566.542969 207.460938 571.605469 L 207.410156 571 C 215.8125 622.789062 260.210938 661.871094 313.75 661.871094 C 315.292969 661.871094 316.8125 661.847656 318.328125 661.769531 L 318.101562 661.769531 C 355.132812 660.65625 387.28125 640.734375 405.457031 611.296875 L 405.707031 610.839844 C 412.46875 601.425781 417.097656 590.035156 418.644531 577.65625 L 418.667969 577.300781 C 421.832031 520.679688 420.566406 464.382812 420.871094 407.757812 C 421.175781 280.285156 420.566406 153.117188 421.503906 25.972656 Z M 421.605469 26.046875 "/></g></svg>