<svg xmlns="http://www.w3.org/2000/svg" xmlns:xlink="http://www.w3.org/1999/xlink" width="1080" zoomAndPan="magnify" viewBox="0 0 810 809.999993" height="1080" preserveAspectRatio="xMidYMid meet" version="1.2"><g id="901c3ad0d1"><path style=" stroke:none;fill-rule:nonzero;fill:#ffffff;fill-opacity:1;" d="M 327.339844 517.867188 L 327.339844 292.15625 L 525.765625 405.023438 Z M 768.691406 221.105469 C 759.730469 188.171875 734.417969 162.707031 702.246094 153.699219 L 701.5625 153.546875 C 620.738281 143.269531 527.257812 137.394531 432.386719 137.394531 C 422.742188 137.394531 413.125 137.445312 403.53125 137.574219 L 405 137.546875 C 396.847656 137.445312 387.257812 137.371094 377.613281 137.371094 C 282.742188 137.371094 189.210938 143.242188 97.402344 154.609375 L 108.386719 153.496094 C 75.558594 162.683594 50.246094 188.121094 41.460938 220.394531 L 41.308594 221.054688 C 31.183594 274.4375 25.414062 335.871094 25.414062 398.648438 C 25.414062 400.875 25.414062 403.101562 25.4375 405.304688 L 25.4375 404.949219 C 25.4375 406.824219 25.414062 409.050781 25.414062 411.277344 C 25.414062 474.050781 31.210938 535.460938 42.273438 595.019531 L 41.308594 588.84375 C 50.269531 621.777344 75.582031 647.242188 107.753906 656.25 L 108.4375 656.402344 C 189.261719 666.679688 282.742188 672.554688 377.613281 672.554688 C 387.230469 672.554688 396.847656 672.503906 406.46875 672.375 L 405 672.402344 C 413.152344 672.503906 422.769531 672.578125 432.386719 672.578125 C 527.285156 672.578125 620.789062 666.707031 712.597656 655.339844 L 701.613281 656.453125 C 734.46875 647.292969 759.78125 621.828125 768.589844 589.554688 L 768.742188 588.894531 C 778.839844 535.511719 784.613281 474.078125 784.613281 411.328125 C 784.613281 409.101562 784.613281 406.875 784.585938 404.671875 L 784.585938 405 C 784.585938 403.128906 784.613281 400.898438 784.613281 398.671875 C 784.613281 335.898438 778.816406 274.488281 767.753906 214.929688 L 768.714844 221.105469 Z M 768.691406 221.105469 "/></g></svg>